STARTFONT 2.1
FONT -FontForge-Gotham Black-Black-R-Normal--50-480-75-75-P-305-ISO10646-1
SIZE 48 75 75
FONTBOUNDINGBOX 67 56 -4 -9
COMMENT "Generated by fontforge, http://fontforge.sourceforge.net"
COMMENT "HTF Gotham  Copr. 2003 The Hoefler Type Foundry, Inc. Info: www.typography.com"
STARTPROPERTIES 39
FOUNDRY "FontForge"
FAMILY_NAME "Gotham Black"
WEIGHT_NAME "Black"
SLANT "R"
SETWIDTH_NAME "Normal"
ADD_STYLE_NAME ""
PIXEL_SIZE 50
POINT_SIZE 480
RESOLUTION_X 75
RESOLUTION_Y 75
SPACING "P"
AVERAGE_WIDTH 305
CHARSET_REGISTRY "ISO10646"
CHARSET_ENCODING "1"
FONTNAME_REGISTRY ""
CHARSET_COLLECTIONS "ISO10646-1"
FONT_NAME "GothamBlack"
FACE_NAME "Gotham Black"
COPYRIGHT "HTF Gotham  Copr. 2003 The Hoefler Type Foundry, Inc. Info: www.typography.com"
FONT_VERSION "001.000"
FONT_ASCENT 40
FONT_DESCENT 10
UNDERLINE_POSITION -7
UNDERLINE_THICKNESS 1
X_HEIGHT 26
CAP_HEIGHT 34
RAW_ASCENT 800
RAW_DESCENT 200
NORM_SPACE 14
RELATIVE_WEIGHT 90
RELATIVE_SETWIDTH 50
SUPERSCRIPT_X 0
SUPERSCRIPT_Y 23
SUPERSCRIPT_SIZE 32
SUBSCRIPT_X 0
SUBSCRIPT_Y 7
SUBSCRIPT_SIZE 32
AVG_LOWERCASE_WIDTH 299
AVG_UPPERCASE_WIDTH 364
ENDPROPERTIES
CHARS 233
STARTCHAR space
ENCODING 32
SWIDTH 277 0
DWIDTH 14 0
BBX 1 1 0 0
BITMAP
00
ENDCHAR
STARTCHAR exclam
ENCODING 33
SWIDTH 324 0
DWIDTH 16 0
BBX 11 35 3 0
BITMAP
FFE0
FFE0
FFE0
FFE0
FFC0
FFC0
FFC0
FFC0
FFC0
FFC0
7FC0
7F80
7F80
7F80
7F80
7F80
3F80
3F80
3F00
3F00
3F00
3F00
3F00
1F00
0000
0000
0000
FFC0
FFC0
FFC0
FFC0
FFC0
FFC0
FFC0
FFC0
ENDCHAR
STARTCHAR quotedbl
ENCODING 34
SWIDTH 537 0
DWIDTH 27 0
BBX 24 18 2 17
BITMAP
7FE3FF
7FC3FE
7FC7FE
7FC7FE
7F87FC
FF87FC
FF87FC
FF07F8
FF07F8
FF07F8
FE07F0
FE07F0
FE07E0
FC07E0
FC07E0
FC07C0
F807C0
F80FC0
ENDCHAR
STARTCHAR numbersign
ENCODING 35
SWIDTH 706 0
DWIDTH 35 0
BBX 33 35 1 0
BITMAP
007F01FC00
007F01FC00
007F03FC00
007F03F800
00FF03F800
00FF03F800
00FE03F800
3FFFFFFF80
3FFFFFFF80
3FFFFFFF80
3FFFFFFF80
3FFFFFFF80
3FFFFFFF80
3FFFFFFF80
3FFFFFFF80
01FC0FE000
03F80FE000
03F80FE000
03F80FE000
03F80FE000
FFFFFFFE00
FFFFFFFE00
FFFFFFFE00
FFFFFFFE00
FFFFFFFE00
FFFFFFFE00
FFFFFFFE00
FFFFFFFE00
0FF03F8000
0FE03F8000
0FE03F8000
0FE07F8000
0FE07F0000
1FE07F0000
1FE07F0000
ENDCHAR
STARTCHAR dollar
ENCODING 36
SWIDTH 666 0
DWIDTH 33 0
BBX 31 43 1 -5
BITMAP
0003E000
0003E000
0003E000
003FFC00
00FFFF80
03FFFFE0
07FFFFF8
0FFFFFFC
1FFFFFF8
1FFFFFF0
3FFBFFE0
3FE3E7E0
3FE3E0C0
3FE3E040
3FF3E000
3FFFE000
3FFFE000
1FFFFE00
1FFFFF80
0FFFFFE0
07FFFFF0
03FFFFF8
00FFFFFC
001FFFFC
0003FFFE
0003EFFE
0803E7FE
0E03E3FE
0F03E3FE
1FE3E3FE
3FFFEFFE
3FFFFFFC
7FFFFFFC
FFFFFFF8
1FFFFFF0
07FFFFE0
01FFFF80
001FFC00
0003E000
0003E000
0003E000
0003E000
0003E000
ENDCHAR
STARTCHAR percent
ENCODING 37
SWIDTH 899 0
DWIDTH 45 0
BBX 41 37 2 -1
BITMAP
03F000000000
0FFC0003F800
1FFE0007F000
3FFF0007E000
7FFF800FC000
7FFF801F8000
7E3F803F8000
FE1FC03F0000
FC0FC07E0000
FC0FC0FC0000
FC0FC1FC0000
FC0FC1F80000
FE1FC3F00000
FE1F87E00000
7FFF8FE00000
7FFF8FC00000
3FFF1F800000
1FFE3F07E000
0FFC7F1FF800
03F07E3FFC00
0000FC7FFE00
0001F8FFFF00
0003F8FFFF00
0003F1FC7F00
0007E1FC3F80
000FC1F81F80
001FC1F81F80
001F81F81F80
003F01F81F80
007E01FC3F80
00FE01FE3F00
00FC00FFFF00
01F800FFFF00
03F0007FFE00
07F0003FFC00
0FE0001FF800
00000007E000
ENDCHAR
STARTCHAR ampersand
ENCODING 38
SWIDTH 698 0
DWIDTH 35 0
BBX 33 37 1 -1
BITMAP
000FE00000
003FFC0000
00FFFE0000
01FFFF0000
01FFFF8000
03FFFF8000
03FFFFC000
07FC7FC000
07F83FC000
07F83FC000
07F83FC000
07F83FC000
07FC7F8000
03FCFF8000
03FFFF0000
01FFFE0000
01FFFC0000
03FFF83000
0FFFE07C00
1FFFF07F00
3FFFF8FF00
7FFFFDFF00
7FE7FFFE00
FFE3FFFE00
FFC1FFFC00
FFC0FFF800
FFC07FF800
FFE03FF000
FFF0FFF800
FFFFFFFC00
7FFFFFFE00
7FFFFFFF00
3FFFFFFF80
1FFFFFFE00
0FFFF8F800
07FFE07000
00FF002000
ENDCHAR
STARTCHAR quotesingle
ENCODING 39
SWIDTH 284 0
DWIDTH 14 0
BBX 11 18 2 17
BITMAP
7FE0
7FE0
7FC0
7FC0
7FC0
FF80
FF80
FF80
FF00
FF00
FF00
FE00
FE00
FC00
FC00
FC00
F800
F800
ENDCHAR
STARTCHAR parenleft
ENCODING 40
SWIDTH 445 0
DWIDTH 22 0
BBX 19 43 2 -7
BITMAP
000300
000700
001F80
003FC0
00FFC0
01FFE0
03FFC0
07FF80
0FFF00
0FFE00
1FFC00
3FF800
3FF800
7FF000
7FE000
7FE000
7FE000
FFC000
FFC000
FFC000
FFC000
FFC000
FFC000
FFC000
FFC000
FFC000
7FE000
7FE000
7FE000
7FF000
3FF000
3FF800
1FFC00
0FFE00
0FFF00
07FF80
03FFC0
01FFE0
00FFC0
003FC0
001F80
000700
000300
ENDCHAR
STARTCHAR parenright
ENCODING 41
SWIDTH 445 0
DWIDTH 22 0
BBX 19 43 1 -7
BITMAP
180000
1C0000
3F0000
7F8000
7FE000
FFF000
7FF800
3FFC00
1FFE00
0FFE00
07FF00
03FF80
03FF80
01FFC0
00FFC0
00FFC0
00FFC0
007FE0
007FE0
007FE0
007FE0
007FE0
007FE0
007FE0
007FE0
007FE0
00FFC0
00FFC0
00FFC0
01FFC0
03FF80
03FF80
07FF00
0FFE00
1FFE00
3FFC00
7FF800
FFF000
7FE000
7F8000
3F0000
1C0000
180000
ENDCHAR
STARTCHAR asterisk
ENCODING 42
SWIDTH 425 0
DWIDTH 21 0
BBX 19 18 1 17
BITMAP
01F000
01F000
11F100
38F180
3CE7C0
7EEFC0
7FFFE0
BFFF80
07FC00
07FC00
1FFF80
FFFFE0
7EEFC0
3CE7C0
38F180
11F100
01F000
01F000
ENDCHAR
STARTCHAR plus
ENCODING 43
SWIDTH 640 0
DWIDTH 32 0
BBX 25 25 4 5
BITMAP
00FF8000
00FF8000
00FF8000
00FF8000
00FF8000
00FF8000
00FF8000
00FF8000
FFFFFF80
FFFFFF80
FFFFFF80
FFFFFF80
FFFFFF80
FFFFFF80
FFFFFF80
FFFFFF80
00FF8000
00FF8000
00FF8000
00FF8000
00FF8000
00FF8000
00FF8000
00FF8000
00FF8000
ENDCHAR
STARTCHAR comma
ENCODING 44
SWIDTH 284 0
DWIDTH 14 0
BBX 11 18 1 -8
BITMAP
7FE0
7FE0
7FE0
7FE0
7FE0
7FE0
7FE0
7FE0
7FE0
7FE0
07E0
07E0
0FC0
1FC0
FF80
FF00
FE00
7000
ENDCHAR
STARTCHAR hyphen
ENCODING 45
SWIDTH 408 0
DWIDTH 20 0
BBX 16 8 2 12
BITMAP
FFFF
FFFF
FFFF
FFFF
FFFF
FFFF
FFFF
FFFF
ENDCHAR
STARTCHAR period
ENCODING 46
SWIDTH 284 0
DWIDTH 14 0
BBX 10 10 2 0
BITMAP
FFC0
FFC0
FFC0
FFC0
FFC0
FFC0
FFC0
FFC0
FFC0
FFC0
ENDCHAR
STARTCHAR slash
ENCODING 47
SWIDTH 535 0
DWIDTH 27 0
BBX 30 46 -2 -6
BITMAP
000003FC
000003F8
000007F8
000007F0
00000FF0
00000FE0
00001FE0
00001FC0
00003FC0
00003F80
00007F80
00007F00
0000FF00
0000FE00
0001FE00
0001FE00
0003FC00
0003FC00
0007F800
0007F800
000FF000
000FF000
001FE000
001FE000
003FC000
003FC000
007F8000
007F8000
007F0000
00FF0000
00FE0000
01FE0000
01FC0000
03FC0000
03F80000
07F80000
07F00000
0FF00000
0FE00000
1FE00000
1FC00000
3FC00000
3FC00000
7F800000
7F800000
FF000000
ENDCHAR
STARTCHAR zero
ENCODING 48
SWIDTH 730 0
DWIDTH 37 0
BBX 33 37 2 -1
BITMAP
000FF80000
003FFE0000
00FFFF8000
03FFFFE000
07FFFFF000
0FFFFFF800
0FFFFFF800
1FFFFFFC00
3FFC1FFE00
3FF80FFE00
7FF007FF00
7FE007FF00
7FE003FF00
7FE003FF00
FFC001FF80
FFC001FF80
FFC001FF80
FFC001FF80
FFC001FF80
FFC001FF80
FFC001FF80
FFC001FF80
FFC001FF80
FFE003FF00
7FE003FF00
7FE003FF00
7FF007FF00
3FF80FFE00
3FFC1FFE00
1FFFFFFC00
0FFFFFF800
0FFFFFF800
07FFFFF000
03FFFFE000
00FFFF8000
007FFE0000
000FF80000
ENDCHAR
STARTCHAR one
ENCODING 49
SWIDTH 422 0
DWIDTH 21 0
BBX 18 35 0 0
BITMAP
007FC0
07FFC0
3FFFC0
FFFFC0
7FFFC0
7FFFC0
7FFFC0
7FFFC0
3FFFC0
3CFFC0
00FFC0
00FFC0
00FFC0
00FFC0
00FFC0
00FFC0
00FFC0
00FFC0
00FFC0
00FFC0
00FFC0
00FFC0
00FFC0
00FFC0
00FFC0
00FFC0
00FFC0
00FFC0
00FFC0
00FFC0
00FFC0
00FFC0
00FFC0
00FFC0
00FFC0
ENDCHAR
STARTCHAR two
ENCODING 50
SWIDTH 624 0
DWIDTH 31 0
BBX 28 36 1 0
BITMAP
003FE000
01FFFC00
07FFFE00
0FFFFF80
1FFFFFC0
3FFFFFC0
7FFFFFE0
7FFFFFE0
3FF0FFF0
0FC07FF0
07803FF0
03003FF0
02003FF0
00003FF0
00007FF0
0000FFE0
0001FFE0
0003FFC0
0007FFC0
000FFF80
001FFF00
007FFE00
00FFFC00
01FFF000
07FFE000
0FFF8000
1FFF0000
3FFE0000
FFFFFFF0
FFFFFFF0
FFFFFFF0
FFFFFFF0
FFFFFFF0
FFFFFFF0
FFFFFFF0
FFFFFFF0
ENDCHAR
STARTCHAR three
ENCODING 51
SWIDTH 621 0
DWIDTH 31 0
BBX 29 36 1 -1
BITMAP
3FFFFFF0
3FFFFFF0
3FFFFFF0
3FFFFFF0
3FFFFFF0
3FFFFFF0
3FFFFFF0
3FFFFFE0
0001FFC0
0003FF80
0007FF00
000FFE00
001FF800
003FF000
007FF800
00FFFE00
00FFFF80
00FFFFC0
007FFFE0
007FFFF0
007FFFF0
00007FF8
00003FF8
00001FF8
02001FF8
07001FF8
0F803FF8
1FE07FF8
3FFFFFF0
7FFFFFF0
FFFFFFE0
3FFFFFC0
1FFFFF80
0FFFFF00
03FFFC00
003FE000
ENDCHAR
STARTCHAR four
ENCODING 52
SWIDTH 689 0
DWIDTH 34 0
BBX 33 35 0 0
BITMAP
00003FF800
00007FF800
00007FF800
0000FFF800
0001FFF800
0003FFF800
0007FFF800
000FFFF800
000FFFF800
001FFFF800
003FFFF800
007FFFF800
00FFDFF800
01FF9FF800
01FF1FF800
03FE1FF800
07FC1FF800
0FFC1FF800
1FF81FF800
1FF01FF800
3FE01FF800
7FFFFFFF80
FFFFFFFF80
7FFFFFFF80
7FFFFFFF80
7FFFFFFF80
7FFFFFFF80
3FFFFFFF80
3FFFFFFF80
00001FF800
00001FF800
00001FF800
00001FF800
00001FF800
00001FF800
ENDCHAR
STARTCHAR five
ENCODING 53
SWIDTH 630 0
DWIDTH 32 0
BBX 29 36 1 -1
BITMAP
1FFFFFE0
1FFFFFE0
1FFFFFE0
1FFFFFE0
1FFFFFE0
1FFFFFE0
1FFFFFE0
1FFFFFE0
1FE00000
1FE00000
1FE00000
1FE00000
1FE7F000
1FFFFE00
1FFFFF80
1FFFFFC0
1FFFFFE0
1FFFFFF0
3FFFFFF0
0FFFFFF0
03E07FF8
00803FF8
00001FF8
00001FF8
04001FF8
0E001FF8
1F803FF8
3FE07FF0
3FFFFFF0
7FFFFFE0
FFFFFFE0
7FFFFFC0
3FFFFF80
0FFFFF00
03FFFC00
007FE000
ENDCHAR
STARTCHAR six
ENCODING 54
SWIDTH 662 0
DWIDTH 33 0
BBX 29 37 2 -1
BITMAP
000FF800
007FFF00
01FFFFC0
03FFFFF0
07FFFFF0
0FFFFFE0
1FFFFFC0
1FFFFFC0
3FFC0F80
3FF00300
7FF00100
7FE00000
7FE3F800
7FCFFE00
FFDFFF80
FFFFFFC0
FFFFFFE0
FFFFFFE0
FFFFFFF0
FFFFFFF0
FFF07FF8
FFE03FF8
FFC01FF8
FFC01FF8
FFC01FF8
7FC01FF8
7FC01FF8
7FE03FF8
7FF07FF0
3FFFFFF0
3FFFFFE0
1FFFFFE0
0FFFFFC0
07FFFF80
03FFFF00
00FFFC00
001FE000
ENDCHAR
STARTCHAR seven
ENCODING 55
SWIDTH 614 0
DWIDTH 31 0
BBX 27 35 2 0
BITMAP
FFFFFFE0
FFFFFFE0
FFFFFFE0
FFFFFFE0
FFFFFFE0
FFFFFFE0
FFFFFFE0
FFFFFFE0
0000FFE0
0000FFC0
0001FF80
0003FF80
0003FF00
0007FF00
0007FE00
000FFE00
000FFC00
001FFC00
003FF800
003FF000
007FF000
007FE000
00FFE000
00FFC000
01FFC000
03FF8000
03FF8000
07FF0000
07FE0000
0FFE0000
0FFC0000
1FFC0000
1FF80000
3FF80000
7FF00000
ENDCHAR
STARTCHAR eight
ENCODING 56
SWIDTH 630 0
DWIDTH 32 0
BBX 29 37 1 -1
BITMAP
001FE000
00FFFC00
03FFFF00
07FFFF80
0FFFFFC0
1FFFFFE0
1FFFFFE0
3FFFFFF0
3FF87FF0
3FF03FF0
3FE01FF0
3FE01FF0
3FE01FF0
1FF03FE0
1FF87FE0
0FFFFFC0
07FFFF80
03FFFE00
0FFFFF80
1FFFFFC0
3FFFFFE0
7FF07FF0
7FE03FF0
FFC01FF8
FFC01FF8
FFC01FF8
FFC01FF8
FFE03FF8
FFF07FF8
7FFFFFF0
7FFFFFF0
3FFFFFE0
3FFFFFE0
1FFFFFC0
07FFFF00
01FFFC00
003FE000
ENDCHAR
STARTCHAR nine
ENCODING 57
SWIDTH 662 0
DWIDTH 33 0
BBX 29 37 2 -1
BITMAP
003FC000
01FFF800
07FFFE00
0FFFFF00
1FFFFF80
3FFFFFC0
3FFFFFE0
7FFFFFE0
7FF07FF0
FFE03FF0
FFC01FF0
FFC01FF0
FFC01FF8
FFC01FF8
FFE03FF8
FFF07FF8
FFFFFFF8
7FFFFFF8
7FFFFFF8
3FFFFFF8
1FFFFFF8
0FFFDFF8
07FF9FF8
00FE1FF0
00003FF0
00003FF0
08007FF0
0E00FFE0
1F81FFE0
1FFFFFC0
3FFFFFC0
7FFFFF80
7FFFFF00
FFFFFE00
1FFFFC00
07FFF000
00FF8000
ENDCHAR
STARTCHAR colon
ENCODING 58
SWIDTH 294 0
DWIDTH 15 0
BBX 10 27 2 0
BITMAP
FFC0
FFC0
FFC0
FFC0
FFC0
FFC0
FFC0
FFC0
FFC0
FFC0
0000
0000
0000
0000
0000
0000
0000
FFC0
FFC0
FFC0
FFC0
FFC0
FFC0
FFC0
FFC0
FFC0
FFC0
ENDCHAR
STARTCHAR semicolon
ENCODING 59
SWIDTH 294 0
DWIDTH 15 0
BBX 11 35 1 -8
BITMAP
7FE0
7FE0
7FE0
7FE0
7FE0
7FE0
7FE0
7FE0
7FE0
7FE0
0000
0000
0000
0000
0000
0000
0000
7FE0
7FE0
7FE0
7FE0
7FE0
7FE0
7FE0
7FE0
7FE0
7FE0
07E0
07E0
0FC0
1FC0
FF80
FF00
FE00
7000
ENDCHAR
STARTCHAR less
ENCODING 60
SWIDTH 644 0
DWIDTH 32 0
BBX 25 29 3 3
BITMAP
00000080
00000780
00001F80
0000FF80
0003FF80
001FFF80
007FFF80
03FFFF80
0FFFFF80
3FFFFE00
FFFFF800
FFFFC000
FFFE0000
FFF00000
FF800000
FFF00000
FFFE0000
FFFFC000
FFFFF800
3FFFFF00
0FFFFF80
03FFFF80
007FFF80
001FFF80
0003FF80
0000FF80
00001F80
00000780
00000080
ENDCHAR
STARTCHAR equal
ENCODING 61
SWIDTH 639 0
DWIDTH 32 0
BBX 24 21 4 7
BITMAP
FFFFFF
FFFFFF
FFFFFF
FFFFFF
FFFFFF
FFFFFF
FFFFFF
FFFFFF
000000
000000
000000
000000
000000
FFFFFF
FFFFFF
FFFFFF
FFFFFF
FFFFFF
FFFFFF
FFFFFF
FFFFFF
ENDCHAR
STARTCHAR greater
ENCODING 62
SWIDTH 644 0
DWIDTH 32 0
BBX 25 29 4 3
BITMAP
80000000
F0000000
FC000000
FF800000
FFE00000
FFFC0000
FFFF0000
FFFFE000
FFFFF800
3FFFFF00
0FFFFF80
01FFFF80
003FFF80
0007FF80
0000FF80
0003FF80
001FFF80
00FFFF80
07FFFF80
3FFFFF00
FFFFF800
FFFFE000
FFFF0000
FFFC0000
FFE00000
FF800000
FC000000
F0000000
80000000
ENDCHAR
STARTCHAR question
ENCODING 63
SWIDTH 540 0
DWIDTH 27 0
BBX 26 36 0 0
BITMAP
00FF8000
07FFF000
1FFFFC00
3FFFFE00
FFFFFF00
FFFFFF80
7FFFFF80
3FFFFFC0
1FC1FFC0
0E00FFC0
0C00FFC0
0000FFC0
0001FFC0
0003FF80
001FFF80
00FFFF00
00FFFF00
00FFFE00
007FF800
007FE000
007F0000
007F0000
007F0000
007E0000
00000000
00000000
00000000
00000000
01FF8000
01FF8000
01FF8000
01FF8000
01FF8000
01FF8000
01FF8000
01FF8000
ENDCHAR
STARTCHAR at
ENCODING 64
SWIDTH 965 0
DWIDTH 48 0
BBX 44 44 2 -8
BITMAP
00007FE00000
0003FFFE0000
000FC01F8000
003C0003E000
00700000F000
01E000003800
038000001C00
070000000600
060000000300
0C0000000380
1C007E000180
1801FF8F00C0
3003FFCFF0E0
3007FFFFE060
600FFFFFE060
601FFFFFE070
601FFFFFE030
C03FF0FFE030
C03FE07FC030
C07FC03FC030
C07F803FC030
C07F803FC030
C07F803FC030
C07F807F8030
C07FC0FF8060
C07FE1FF8060
C07FFFFF8060
603FFFFF80C0
603FFFFF81C0
601FFFFFC380
300FFF9FFF00
3007FE0FFE00
3801F803F800
180000000000
0C0000000000
0E0000000000
070000000000
038000000000
01C000000000
00F000006000
003C0001E000
000F801F8000
0003FFFE0000
00007FE00000
ENDCHAR
STARTCHAR A
ENCODING 65
SWIDTH 795 0
DWIDTH 40 0
BBX 39 35 0 0
BITMAP
0001FF8000
0001FF8000
0003FFC000
0003FFC000
0007FFC000
0007FFE000
000FFFE000
000FFFF000
000FFFF000
001FFFF800
001FFFF800
003FFFF800
003FEFFC00
007FE7FC00
007FC7FE00
007FC3FE00
00FFC3FF00
00FF83FF00
01FF81FF00
01FF01FF80
03FF01FF80
03FFFFFFC0
03FFFFFFC0
07FFFFFFE0
07FFFFFFE0
0FFFFFFFE0
0FFFFFFFF0
1FFFFFFFF0
1FFFFFFFF8
1FF8001FF8
3FF0001FFC
3FF0000FFC
7FF0000FFC
7FE0000FFE
FFE00007FE
ENDCHAR
STARTCHAR B
ENCODING 66
SWIDTH 715 0
DWIDTH 36 0
BBX 32 35 3 0
BITMAP
FFFFFE00
FFFFFF80
FFFFFFE0
FFFFFFF0
FFFFFFF8
FFFFFFF8
FFFFFFFC
FFFFFFFC
FFC03FFC
FFC00FFC
FFC00FFC
FFC00FFC
FFC00FF8
FFC03FF8
FFFFFFF0
FFFFFFE0
FFFFFF80
FFFFFFC0
FFFFFFF0
FFFFFFFC
FFFFFFFE
FFC00FFE
FFC003FF
FFC003FF
FFC003FF
FFC003FF
FFC00FFF
FFFFFFFF
FFFFFFFF
FFFFFFFE
FFFFFFFC
FFFFFFFC
FFFFFFF0
FFFFFFE0
FFFFFE00
ENDCHAR
STARTCHAR C
ENCODING 67
SWIDTH 730 0
DWIDTH 37 0
BBX 34 37 2 -1
BITMAP
0003FE0000
001FFFE000
007FFFF800
01FFFFFC00
03FFFFFE00
07FFFFFF00
0FFFFFFF80
1FFFFFFF00
1FFF07FE00
3FFC01F800
3FF8007000
7FF0006000
7FE0000000
7FE0000000
FFE0000000
FFC0000000
FFC0000000
FFC0000000
FFC0000000
FFC0000000
FFC0000000
FFC0000000
FFE0000000
7FE0000000
7FE0000000
7FF0002000
3FF8007800
3FFC01FC00
1FFF07FF00
1FFFFFFF80
0FFFFFFFC0
07FFFFFF00
03FFFFFE00
01FFFFFC00
007FFFF000
001FFFC000
0003FE0000
ENDCHAR
STARTCHAR D
ENCODING 68
SWIDTH 765 0
DWIDTH 38 0
BBX 33 35 3 0
BITMAP
FFFFE00000
FFFFFC0000
FFFFFF0000
FFFFFFC000
FFFFFFE000
FFFFFFF000
FFFFFFF800
FFFFFFFC00
FFC07FFE00
FFC01FFE00
FFC00FFF00
FFC007FF00
FFC003FF00
FFC003FF80
FFC001FF80
FFC001FF80
FFC001FF80
FFC001FF80
FFC001FF80
FFC001FF80
FFC001FF80
FFC003FF80
FFC003FF00
FFC007FF00
FFC007FF00
FFC01FFE00
FFC07FFE00
FFFFFFFC00
FFFFFFF800
FFFFFFF000
FFFFFFE000
FFFFFFC000
FFFFFF0000
FFFFFC0000
FFFFC00000
ENDCHAR
STARTCHAR E
ENCODING 69
SWIDTH 667 0
DWIDTH 33 0
BBX 29 35 3 0
BITMAP
FFFFFFF8
FFFFFFF8
FFFFFFF8
FFFFFFF8
FFFFFFF8
FFFFFFF8
FFFFFFF8
FFFFFFF8
FFC00000
FFC00000
FFC00000
FFC00000
FFC00000
FFFFFFE0
FFFFFFE0
FFFFFFE0
FFFFFFE0
FFFFFFE0
FFFFFFE0
FFFFFFE0
FFFFFFE0
FFC00000
FFC00000
FFC00000
FFC00000
FFC00000
FFC00000
FFFFFFF8
FFFFFFF8
FFFFFFF8
FFFFFFF8
FFFFFFF8
FFFFFFF8
FFFFFFF8
FFFFFFF8
ENDCHAR
STARTCHAR F
ENCODING 70
SWIDTH 648 0
DWIDTH 32 0
BBX 28 35 3 0
BITMAP
FFFFFFF0
FFFFFFF0
FFFFFFF0
FFFFFFF0
FFFFFFF0
FFFFFFF0
FFFFFFF0
FFFFFFF0
FFC00000
FFC00000
FFC00000
FFC00000
FFC00000
FFC00000
FFFFFFE0
FFFFFFE0
FFFFFFE0
FFFFFFE0
FFFFFFE0
FFFFFFE0
FFFFFFE0
FFFFFFE0
FFC00000
FFC00000
FFC00000
FFC00000
FFC00000
FFC00000
FFC00000
FFC00000
FFC00000
FFC00000
FFC00000
FFC00000
FFC00000
ENDCHAR
STARTCHAR G
ENCODING 71
SWIDTH 769 0
DWIDTH 38 0
BBX 34 37 2 -1
BITMAP
0003FF0000
001FFFF000
007FFFFC00
00FFFFFE00
03FFFFFF80
07FFFFFF00
0FFFFFFF00
0FFFFFFE00
1FFF03FC00
3FFC007800
3FF8003000
7FF0000000
7FF0000000
7FE0000000
FFE0000000
FFC07FFFC0
FFC07FFFC0
FFC07FFFC0
FFC07FFFC0
FFC07FFFC0
FFC07FFFC0
FFC07FFFC0
FFE07FFFC0
7FE000FFC0
7FE000FFC0
7FF000FFC0
3FF800FFC0
3FFC00FFC0
1FFF03FFC0
1FFFFFFFC0
0FFFFFFFC0
07FFFFFFC0
03FFFFFF80
01FFFFFE00
007FFFF800
001FFFE000
0003FF0000
ENDCHAR
STARTCHAR H
ENCODING 72
SWIDTH 761 0
DWIDTH 38 0
BBX 32 35 3 0
BITMAP
FFC003FF
FFC003FF
FFC003FF
FFC003FF
FFC003FF
FFC003FF
FFC003FF
FFC003FF
FFC003FF
FFC003FF
FFC003FF
FFC003FF
FFC003FF
FFFFFFFF
FFFFFFFF
FFFFFFFF
FFFFFFFF
FFFFFFFF
FFFFFFFF
FFFFFFFF
FFFFFFFF
FFC003FF
FFC003FF
FFC003FF
FFC003FF
FFC003FF
FFC003FF
FFC003FF
FFC003FF
FFC003FF
FFC003FF
FFC003FF
FFC003FF
FFC003FF
FFC003FF
ENDCHAR
STARTCHAR I
ENCODING 73
SWIDTH 327 0
DWIDTH 16 0
BBX 10 35 3 0
BITMAP
FFC0
FFC0
FFC0
FFC0
FFC0
FFC0
FFC0
FFC0
FFC0
FFC0
FFC0
FFC0
FFC0
FFC0
FFC0
FFC0
FFC0
FFC0
FFC0
FFC0
FFC0
FFC0
FFC0
FFC0
FFC0
FFC0
FFC0
FFC0
FFC0
FFC0
FFC0
FFC0
FFC0
FFC0
FFC0
ENDCHAR
STARTCHAR J
ENCODING 74
SWIDTH 564 0
DWIDTH 28 0
BBX 26 36 0 -1
BITMAP
0000FFC0
0000FFC0
0000FFC0
0000FFC0
0000FFC0
0000FFC0
0000FFC0
0000FFC0
0000FFC0
0000FFC0
0000FFC0
0000FFC0
0000FFC0
0000FFC0
0000FFC0
0000FFC0
0000FFC0
0000FFC0
0000FFC0
0000FFC0
0000FFC0
0000FFC0
0000FFC0
0000FFC0
0000FFC0
0200FFC0
0701FFC0
0FC3FF80
3FFFFF80
7FFFFF80
FFFFFF00
7FFFFE00
3FFFFC00
0FFFF800
07FFE000
00FF8000
ENDCHAR
STARTCHAR K
ENCODING 75
SWIDTH 730 0
DWIDTH 37 0
BBX 34 35 3 0
BITMAP
FFC003FFC0
FFC007FF00
FFC00FFE00
FFC01FFC00
FFC03FFC00
FFC07FF800
FFC07FF000
FFC0FFE000
FFC1FFC000
FFC3FF8000
FFC7FF0000
FFCFFE0000
FFDFFE0000
FFDFFC0000
FFFFF80000
FFFFF80000
FFFFF80000
FFFFFC0000
FFFFFE0000
FFFFFE0000
FFFFFF0000
FFFFFF8000
FFFBFF8000
FFF1FFC000
FFE1FFE000
FFC0FFE000
FFC07FF000
FFC07FF800
FFC03FFC00
FFC01FFC00
FFC01FFE00
FFC00FFF00
FFC007FF00
FFC007FF80
FFC003FFC0
ENDCHAR
STARTCHAR L
ENCODING 76
SWIDTH 616 0
DWIDTH 31 0
BBX 27 35 3 0
BITMAP
FFC00000
FFC00000
FFC00000
FFC00000
FFC00000
FFC00000
FFC00000
FFC00000
FFC00000
FFC00000
FFC00000
FFC00000
FFC00000
FFC00000
FFC00000
FFC00000
FFC00000
FFC00000
FFC00000
FFC00000
FFC00000
FFC00000
FFC00000
FFC00000
FFC00000
FFC00000
FFC00000
FFFFFFE0
FFFFFFE0
FFFFFFE0
FFFFFFE0
FFFFFFE0
FFFFFFE0
FFFFFFE0
FFFFFFE0
ENDCHAR
STARTCHAR M
ENCODING 77
SWIDTH 868 0
DWIDTH 43 0
BBX 37 35 3 0
BITMAP
FFE0003FF8
FFE0003FF8
FFF0007FF8
FFF0007FF8
FFF800FFF8
FFFC01FFF8
FFFC01FFF8
FFFE03FFF8
FFFE03FFF8
FFFF07FFF8
FFFF8FFFF8
FFFF8FFFF8
FFFFDFFFF8
FFFFDFFFF8
FFFFFFFFF8
FFFFFFFFF8
FFDFFFDFF8
FFCFFF9FF8
FFCFFF9FF8
FFC7FF1FF8
FFC7FF1FF8
FFC3FE1FF8
FFC1FC1FF8
FFC1FC1FF8
FFC0F81FF8
FFC0F81FF8
FFC0701FF8
FFC0201FF8
FFC0201FF8
FFC0001FF8
FFC0001FF8
FFC0001FF8
FFC0001FF8
FFC0001FF8
FFC0001FF8
ENDCHAR
STARTCHAR N
ENCODING 78
SWIDTH 785 0
DWIDTH 39 0
BBX 33 35 3 0
BITMAP
FF8001FF80
FFC001FF80
FFE001FF80
FFF001FF80
FFF001FF80
FFF801FF80
FFFC01FF80
FFFE01FF80
FFFE01FF80
FFFF01FF80
FFFF81FF80
FFFFC1FF80
FFFFC1FF80
FFFFE1FF80
FFFFF1FF80
FFFFF9FF80
FFDFF9FF80
FFDFFDFF80
FFCFFFFF80
FFC7FFFF80
FFC3FFFF80
FFC3FFFF80
FFC1FFFF80
FFC0FFFF80
FFC07FFF80
FFC07FFF80
FFC03FFF80
FFC01FFF80
FFC00FFF80
FFC00FFF80
FFC007FF80
FFC003FF80
FFC001FF80
FFC000FF80
FFC000FF80
ENDCHAR
STARTCHAR O
ENCODING 79
SWIDTH 831 0
DWIDTH 42 0
BBX 38 37 2 -1
BITMAP
0001FE0000
001FFFE000
007FFFF800
00FFFFFC00
03FFFFFF00
07FFFFFF80
0FFFFFFFC0
0FFFFFFFC0
1FFF03FFE0
3FFC00FFF0
3FF8007FF0
7FF0003FF8
7FE0003FF8
7FE0001FF8
FFE0001FFC
FFC0000FFC
FFC0000FFC
FFC0000FFC
FFC0000FFC
FFC0000FFC
FFC0000FFC
FFC0000FFC
FFE0001FFC
7FE0001FF8
7FF0003FF8
7FF0003FF8
3FF8007FF0
3FFC00FFF0
1FFF03FFE0
0FFFFFFFC0
0FFFFFFFC0
07FFFFFF80
03FFFFFF00
00FFFFFC00
007FFFF800
001FFFE000
0003FE0000
ENDCHAR
STARTCHAR P
ENCODING 80
SWIDTH 673 0
DWIDTH 34 0
BBX 30 35 3 0
BITMAP
FFFFF000
FFFFFE00
FFFFFF80
FFFFFFC0
FFFFFFE0
FFFFFFF0
FFFFFFF8
FFFFFFF8
FFC07FF8
FFC01FFC
FFC00FFC
FFC00FFC
FFC00FFC
FFC00FFC
FFC00FFC
FFC01FFC
FFC07FF8
FFFFFFF8
FFFFFFF8
FFFFFFF0
FFFFFFE0
FFFFFFC0
FFFFFF80
FFFFFE00
FFFFF000
FFC00000
FFC00000
FFC00000
FFC00000
FFC00000
FFC00000
FFC00000
FFC00000
FFC00000
FFC00000
ENDCHAR
STARTCHAR Q
ENCODING 81
SWIDTH 831 0
DWIDTH 42 0
BBX 39 37 2 -1
BITMAP
0001FF0000
001FFFE000
007FFFF800
00FFFFFC00
03FFFFFF00
07FFFFFF80
0FFFFFFFC0
0FFFFFFFC0
1FFF03FFE0
3FFC00FFF0
3FF8007FF0
7FF0003FF8
7FF0003FF8
7FE0001FF8
FFE0001FFC
FFC0000FFC
FFC0000FFC
FFC0000FFC
FFC0030FFC
FFC0078FFC
FFC00FCFFC
FFC01FEFFC
FFE03FFFFC
7FE03FFFF8
7FF01FFFF8
7FF00FFFF8
3FF803FFF0
3FFC03FFE0
1FFF07FFE0
0FFFFFFFF0
0FFFFFFFF8
07FFFFFFFC
03FFFFFFFE
00FFFFFFF8
007FFFFBF0
001FFFE0E0
0003FE0040
ENDCHAR
STARTCHAR R
ENCODING 82
SWIDTH 719 0
DWIDTH 36 0
BBX 32 35 3 0
BITMAP
FFFFFC00
FFFFFF80
FFFFFFC0
FFFFFFF0
FFFFFFF8
FFFFFFF8
FFFFFFFC
FFFFFFFC
FFC01FFE
FFC00FFE
FFC007FE
FFC007FE
FFC007FE
FFC007FE
FFC007FE
FFC00FFE
FFC01FFC
FFFFFFFC
FFFFFFF8
FFFFFFF0
FFFFFFF0
FFFFFFC0
FFFFFF00
FFFFFF00
FFFFFF80
FFC3FFC0
FFC1FFC0
FFC0FFE0
FFC07FF0
FFC07FF0
FFC03FF8
FFC01FFC
FFC01FFC
FFC00FFE
FFC007FF
ENDCHAR
STARTCHAR S
ENCODING 83
SWIDTH 652 0
DWIDTH 33 0
BBX 31 37 0 -1
BITMAP
001FF800
00FFFF80
01FFFFE0
07FFFFF8
0FFFFFFC
0FFFFFFC
1FFFFFF8
1FFFFFF0
3FF81FE0
3FF003E0
3FF000C0
3FF00000
3FFC0000
3FFF0000
3FFFF000
1FFFFE00
1FFFFFC0
0FFFFFE0
07FFFFF0
03FFFFF8
00FFFFFC
003FFFFC
0007FFFE
00007FFE
00000FFE
060007FE
0F0007FE
1FC007FE
1FF80FFE
3FFFFFFC
7FFFFFFC
FFFFFFF8
3FFFFFF0
1FFFFFE0
07FFFFC0
00FFFF00
001FF800
ENDCHAR
STARTCHAR T
ENCODING 84
SWIDTH 660 0
DWIDTH 33 0
BBX 32 35 1 0
BITMAP
FFFFFFFF
FFFFFFFF
FFFFFFFF
FFFFFFFF
FFFFFFFF
FFFFFFFF
FFFFFFFF
FFFFFFFF
001FF800
001FF800
001FF800
001FF800
001FF800
001FF800
001FF800
001FF800
001FF800
001FF800
001FF800
001FF800
001FF800
001FF800
001FF800
001FF800
001FF800
001FF800
001FF800
001FF800
001FF800
001FF800
001FF800
001FF800
001FF800
001FF800
001FF800
ENDCHAR
STARTCHAR U
ENCODING 85
SWIDTH 758 0
DWIDTH 38 0
BBX 32 36 3 -1
BITMAP
FFC003FF
FFC003FF
FFC003FF
FFC003FF
FFC003FF
FFC003FF
FFC003FF
FFC003FF
FFC003FF
FFC003FF
FFC003FF
FFC003FF
FFC003FF
FFC003FF
FFC003FF
FFC003FF
FFC003FF
FFC003FF
FFC003FF
FFC003FF
FFC003FF
FFC003FF
FFC003FF
FFC003FF
FFE007FF
7FE007FE
7FF00FFE
7FF81FFE
3FFFFFFC
3FFFFFFC
1FFFFFF8
0FFFFFF0
07FFFFE0
03FFFFC0
00FFFF00
001FF800
ENDCHAR
STARTCHAR V
ENCODING 86
SWIDTH 760 0
DWIDTH 38 0
BBX 38 35 0 0
BITMAP
FFE0001FFC
7FF0003FF8
7FF0003FF8
3FF0003FF0
3FF8007FF0
1FF8007FE0
1FFC007FE0
1FFC00FFE0
0FFC00FFC0
0FFE00FFC0
07FE01FF80
07FE01FF80
07FF01FF80
03FF03FF00
03FF03FF00
01FF87FE00
01FF87FE00
01FF87FE00
00FFCFFC00
00FFCFFC00
007FEFF800
007FFFF800
007FFFF800
003FFFF000
003FFFF000
001FFFE000
001FFFE000
001FFFE000
000FFFC000
000FFFC000
0007FF8000
0007FF8000
0007FF8000
0003FF0000
0003FF0000
ENDCHAR
STARTCHAR W
ENCODING 87
SWIDTH 1117 0
DWIDTH 56 0
BBX 54 35 1 0
BITMAP
FFC001FE000FFC
FFC003FF000FFC
7FE003FF001FF8
7FE003FF001FF8
7FE007FF801FF8
3FF007FF803FF0
3FF007FF803FF0
3FF00FFFC03FF0
1FF80FFFC07FE0
1FF80FFFC07FE0
1FF81FFFE07FE0
0FF81FFFE07FC0
0FFC1FFFE0FFC0
0FFC3FFFF0FFC0
07FC3FFFF0FF80
07FE3FFFF1FF80
07FE7FDFF9FF80
03FE7FCFF9FF00
03FF7FCFFBFF00
03FFFF8FFFFF00
01FFFF87FFFE00
01FFFF87FFFE00
01FFFF03FFFE00
00FFFF03FFFC00
00FFFF03FFFC00
00FFFE01FFFC00
007FFE01FFF800
007FFE01FFF800
007FFC00FFF800
003FFC00FFF000
003FFC00FFF000
003FF8007FF000
001FF8007FE000
001FF0007FE000
001FF0003FE000
ENDCHAR
STARTCHAR X
ENCODING 88
SWIDTH 732 0
DWIDTH 37 0
BBX 35 35 1 0
BITMAP
FFF001FFE0
7FF001FFC0
3FF803FF80
3FF807FF00
1FFC07FF00
0FFE0FFE00
0FFE0FFC00
07FF1FFC00
03FFBFF800
03FFBFF000
01FFFFE000
00FFFFE000
00FFFFC000
007FFF8000
003FFF8000
003FFF0000
001FFE0000
001FFE0000
001FFF0000
003FFF8000
007FFF8000
007FFFC000
00FFFFE000
01FFFFE000
01FFFFF000
03FFBFF800
07FF1FF800
07FE1FFC00
0FFE0FFE00
1FFC0FFE00
1FF807FF00
3FF803FF80
7FF003FF80
7FE001FFC0
FFE000FFE0
ENDCHAR
STARTCHAR Y
ENCODING 89
SWIDTH 723 0
DWIDTH 36 0
BBX 36 35 0 0
BITMAP
FFE0007FF0
7FF0007FE0
7FF000FFE0
3FF801FFC0
3FF801FFC0
1FFC03FF80
0FFC03FF00
0FFE07FF00
07FF07FE00
07FF0FFC00
03FF9FFC00
01FF9FF800
01FFFFF800
00FFFFF000
007FFFE000
007FFFE000
003FFFC000
003FFFC000
001FFF8000
000FFF0000
000FFF0000
0007FE0000
0007FE0000
0007FE0000
0007FE0000
0007FE0000
0007FE0000
0007FE0000
0007FE0000
0007FE0000
0007FE0000
0007FE0000
0007FE0000
0007FE0000
0007FE0000
ENDCHAR
STARTCHAR Z
ENCODING 90
SWIDTH 698 0
DWIDTH 35 0
BBX 31 35 2 0
BITMAP
7FFFFFFE
7FFFFFFE
7FFFFFFE
7FFFFFFE
7FFFFFFE
7FFFFFFE
7FFFFFFE
7FFFFFFE
00007FFC
0000FFF8
0001FFF0
0003FFE0
0003FFC0
0007FF80
000FFF00
001FFF00
003FFE00
007FFC00
00FFF800
01FFF000
01FFE000
03FFC000
07FF8000
0FFF8000
1FFF0000
3FFE0000
7FFC0000
FFFFFFFE
FFFFFFFE
FFFFFFFE
FFFFFFFE
FFFFFFFE
FFFFFFFE
FFFFFFFE
FFFFFFFE
ENDCHAR
STARTCHAR bracketleft
ENCODING 91
SWIDTH 457 0
DWIDTH 23 0
BBX 18 41 3 -6
BITMAP
FFFFC0
FFFFC0
FFFFC0
FFFFC0
FFFFC0
FFFFC0
FF8000
FF8000
FF8000
FF8000
FF8000
FF8000
FF8000
FF8000
FF8000
FF8000
FF8000
FF8000
FF8000
FF8000
FF8000
FF8000
FF8000
FF8000
FF8000
FF8000
FF8000
FF8000
FF8000
FF8000
FF8000
FF8000
FF8000
FF8000
FF8000
FFFFC0
FFFFC0
FFFFC0
FFFFC0
FFFFC0
FFFFC0
ENDCHAR
STARTCHAR backslash
ENCODING 92
SWIDTH 535 0
DWIDTH 27 0
BBX 30 46 -1 -6
BITMAP
FF000000
7F000000
7F800000
7F800000
3FC00000
3FC00000
1FE00000
1FE00000
0FF00000
0FF00000
07F80000
07F80000
03FC0000
03FC0000
01FC0000
01FE0000
00FE0000
00FF0000
007F0000
007F8000
003F8000
003FC000
001FC000
001FE000
000FE000
000FF000
0007F000
0007F800
0003F800
0003FC00
0003FC00
0001FE00
0001FE00
0000FF00
0000FF00
00007F80
00007F80
00003FC0
00003FC0
00001FE0
00001FE0
00000FE0
00000FF0
000007F0
000007F8
000003FC
ENDCHAR
STARTCHAR bracketright
ENCODING 93
SWIDTH 457 0
DWIDTH 23 0
BBX 18 41 2 -6
BITMAP
FFFFC0
FFFFC0
FFFFC0
FFFFC0
FFFFC0
FFFFC0
007FC0
007FC0
007FC0
007FC0
007FC0
007FC0
007FC0
007FC0
007FC0
007FC0
007FC0
007FC0
007FC0
007FC0
007FC0
007FC0
007FC0
007FC0
007FC0
007FC0
007FC0
007FC0
007FC0
007FC0
007FC0
007FC0
007FC0
007FC0
007FC0
FFFFC0
FFFFC0
FFFFC0
FFFFC0
FFFFC0
FFFFC0
ENDCHAR
STARTCHAR asciicircum
ENCODING 94
SWIDTH 500 0
DWIDTH 25 0
BBX 21 10 2 25
BITMAP
01FC00
03FE00
07FF00
07FF00
0FFF80
1FDFC0
1F8FC0
3F8FE0
7F07F0
FE03F8
ENDCHAR
STARTCHAR underscore
ENCODING 95
SWIDTH 600 0
DWIDTH 30 0
BBX 30 6 0 -8
BITMAP
FFFFFFFC
FFFFFFFC
FFFFFFFC
FFFFFFFC
FFFFFFFC
FFFFFFFC
ENDCHAR
STARTCHAR grave
ENCODING 96
SWIDTH 500 0
DWIDTH 25 0
BBX 14 10 4 29
BITMAP
00C0
07C0
3FE0
FFE0
3FF0
1FF0
0FF8
07F8
03FC
01FC
ENDCHAR
STARTCHAR a
ENCODING 97
SWIDTH 599 0
DWIDTH 30 0
BBX 27 28 1 -1
BITMAP
00FFC000
0FFFF800
3FFFFE00
1FFFFF00
1FFFFF80
1FFFFFC0
1FFFFFC0
0FFFFFC0
0E01FFE0
10007FE0
01FE7FE0
0FFFFFE0
1FFFFFE0
3FFFFFE0
7FFFFFE0
7FF0FFE0
FFE07FE0
FFC07FE0
FFC07FE0
FFC07FE0
FFC0FFE0
FFE1FFE0
7FFFFFE0
7FFFFFE0
3FFFFFE0
1FFFFFE0
0FFE7FE0
03F80000
ENDCHAR
STARTCHAR b
ENCODING 98
SWIDTH 676 0
DWIDTH 34 0
BBX 29 38 3 -1
BITMAP
FFC00000
FFC00000
FFC00000
FFC00000
FFC00000
FFC00000
FFC00000
FFC00000
FFC00000
FF83F000
FF8FFE00
FF9FFF00
FFBFFF80
FFFFFFC0
FFFFFFE0
FFFFFFE0
FFFFFFF0
FFF8FFF0
FFF07FF0
FFE03FF8
FFC01FF8
FFC01FF8
FFC01FF8
FFC01FF8
FFC01FF8
FFC01FF8
FFC01FF8
FFE03FF8
FFF07FF0
FFF8FFF0
FFFFFFF0
FFFFFFE0
FFFFFFE0
FFFFFFC0
FFFFFF80
FFDFFF00
FFCFFE00
0001F800
ENDCHAR
STARTCHAR c
ENCODING 99
SWIDTH 569 0
DWIDTH 28 0
BBX 27 29 1 -1
BITMAP
001FE000
00FFFC00
01FFFE00
07FFFF80
0FFFFFC0
1FFFFFC0
3FFFFFE0
3FFFFF80
7FF83F00
7FF01C00
7FE00800
FFE00000
FFC00000
FFC00000
FFC00000
FFC00000
FFC00000
FFE00000
7FE00800
7FF01C00
7FF83F00
3FFFFF80
3FFFFFE0
1FFFFFC0
0FFFFFC0
07FFFF80
01FFFE00
00FFFC00
001FE000
ENDCHAR
STARTCHAR d
ENCODING 100
SWIDTH 676 0
DWIDTH 34 0
BBX 29 38 2 -1
BITMAP
00001FF8
00001FF8
00001FF8
00001FF8
00001FF8
00001FF8
00001FF8
00001FF8
00001FF8
00FC1FF8
03FF1FF8
07FFDFF8
0FFFFFF8
1FFFFFF8
3FFFFFF8
3FFFFFF8
7FFFFFF8
7FF8FFF8
7FF07FF8
FFE03FF8
FFC01FF8
FFC01FF8
FFC01FF8
FFC01FF8
FFC01FF8
FFC01FF8
FFC01FF8
FFE03FF8
7FF07FF8
7FF8FFF8
7FFFFFF8
3FFFFFF8
3FFFFFF8
1FFFFFF8
0FFFEFF8
07FFDFF8
03FF9FF8
00FE0000
ENDCHAR
STARTCHAR e
ENCODING 101
SWIDTH 605 0
DWIDTH 30 0
BBX 28 29 1 -1
BITMAP
003FC000
00FFF800
03FFFC00
07FFFE00
0FFFFF00
1FFFFF80
1FFFFFC0
3FFFFFC0
3FF0FFE0
7FE03FE0
7FC03FE0
7FC01FE0
7FFFFFF0
FFFFFFF0
FFFFFFF0
FFFFFFF0
7FFFFFF0
7FC00000
7FC00400
7FE00E00
3FF83F00
3FFFFF80
3FFFFFC0
1FFFFFE0
0FFFFF80
07FFFF00
03FFFE00
00FFFC00
001FE000
ENDCHAR
STARTCHAR f
ENCODING 102
SWIDTH 404 0
DWIDTH 20 0
BBX 19 37 1 0
BITMAP
007FC0
01FFE0
07FFE0
0FFFE0
0FFFE0
0FFFE0
1FFFE0
1FFC00
1FF800
1FF800
FFFFE0
FFFFE0
FFFFE0
FFFFE0
FFFFE0
FFFFE0
FFFFE0
FFFFE0
1FF800
1FF800
1FF800
1FF800
1FF800
1FF800
1FF800
1FF800
1FF800
1FF800
1FF800
1FF800
1FF800
1FF800
1FF800
1FF800
1FF800
1FF800
1FF800
ENDCHAR
STARTCHAR g
ENCODING 103
SWIDTH 676 0
DWIDTH 34 0
BBX 30 36 1 -8
BITMAP
007E0000
01FF8FFC
07FFCFFC
0FFFEFFC
1FFFFFFC
1FFFFFFC
3FFFFFFC
3FFFFFFC
3FF83FFC
7FF01FFC
7FF01FFC
7FE00FFC
7FE00FFC
7FE00FFC
7FE00FFC
7FF01FFC
7FF01FFC
3FF83FFC
3FFFFFFC
3FFFFFFC
1FFFFFFC
1FFFFFFC
0FFFEFFC
07FFCFFC
01FF8FFC
007E1FFC
10001FF8
1C003FF8
3F80FFF8
3FFFFFF0
7FFFFFF0
7FFFFFE0
7FFFFFC0
BFFFFF80
0FFFFE00
00FFE000
ENDCHAR
STARTCHAR h
ENCODING 104
SWIDTH 634 0
DWIDTH 32 0
BBX 27 37 3 0
BITMAP
FFC00000
FFC00000
FFC00000
FFC00000
FFC00000
FFC00000
FFC00000
FFC00000
FFC00000
FFC3F800
FFCFFE00
FFDFFF00
FFFFFF80
FFFFFFC0
FFFFFFC0
FFFFFFE0
FFFFFFE0
FFF1FFE0
FFE0FFE0
FFC07FE0
FFC07FE0
FFC07FE0
FFC07FE0
FFC07FE0
FFC07FE0
FFC07FE0
FFC07FE0
FFC07FE0
FFC07FE0
FFC07FE0
FFC07FE0
FFC07FE0
FFC07FE0
FFC07FE0
FFC07FE0
FFC07FE0
FFC07FE0
ENDCHAR
STARTCHAR i
ENCODING 105
SWIDTH 300 0
DWIDTH 15 0
BBX 10 37 3 0
BITMAP
FFC0
FFC0
FFC0
FFC0
FFC0
FFC0
FFC0
FFC0
0000
0000
FFC0
FFC0
FFC0
FFC0
FFC0
FFC0
FFC0
FFC0
FFC0
FFC0
FFC0
FFC0
FFC0
FFC0
FFC0
FFC0
FFC0
FFC0
FFC0
FFC0
FFC0
FFC0
FFC0
FFC0
FFC0
FFC0
FFC0
ENDCHAR
STARTCHAR j
ENCODING 106
SWIDTH 302 0
DWIDTH 15 0
BBX 14 45 -1 -8
BITMAP
0FFC
0FFC
0FFC
0FFC
0FFC
0FFC
0FFC
0FFC
0000
0000
0FFC
0FFC
0FFC
0FFC
0FFC
0FFC
0FFC
0FFC
0FFC
0FFC
0FFC
0FFC
0FFC
0FFC
0FFC
0FFC
0FFC
0FFC
0FFC
0FFC
0FFC
0FFC
0FFC
0FFC
0FFC
0FFC
0FFC
0FFC
1FFC
FFFC
FFF8
FFF8
FFF0
FFE0
FF00
ENDCHAR
STARTCHAR k
ENCODING 107
SWIDTH 603 0
DWIDTH 30 0
BBX 28 37 2 0
BITMAP
FFC00000
FFC00000
FFC00000
FFC00000
FFC00000
FFC00000
FFC00000
FFC00000
FFC00000
FFC00000
FFC07FF0
FFC0FFC0
FFC1FFC0
FFC3FF80
FFC3FF00
FFC7FE00
FFCFFC00
FFDFF800
FFFFF800
FFFFF000
FFFFE000
FFFFE000
FFFFF000
FFFFF000
FFFFF800
FFFFFC00
FFFFFC00
FFFFFE00
FFF7FE00
FFE3FF00
FFC3FF80
FFC1FF80
FFC1FFC0
FFC0FFC0
FFC0FFE0
FFC07FE0
FFC03FF0
ENDCHAR
STARTCHAR l
ENCODING 108
SWIDTH 300 0
DWIDTH 15 0
BBX 10 37 3 0
BITMAP
FFC0
FFC0
FFC0
FFC0
FFC0
FFC0
FFC0
FFC0
FFC0
FFC0
FFC0
FFC0
FFC0
FFC0
FFC0
FFC0
FFC0
FFC0
FFC0
FFC0
FFC0
FFC0
FFC0
FFC0
FFC0
FFC0
FFC0
FFC0
FFC0
FFC0
FFC0
FFC0
FFC0
FFC0
FFC0
FFC0
FFC0
ENDCHAR
STARTCHAR m
ENCODING 109
SWIDTH 971 0
DWIDTH 49 0
BBX 44 28 2 0
BITMAP
0001F801FC00
FFC7FE07FF00
FFCFFF0FFF80
FFFFFFBFFFC0
FFFFFFFFFFE0
FFFFFFFFFFE0
FFFFFFFFFFF0
FFFFFFFFFFF0
FFF1FFF8FFF0
FFE0FFF07FF0
FFC07FE03FF0
FFC07FE03FF0
FFC07FE03FF0
FFC07FE03FF0
FFC07FE03FF0
FFC07FE03FF0
FFC07FE03FF0
FFC07FE03FF0
FFC07FE03FF0
FFC07FE03FF0
FFC07FE03FF0
FFC07FE03FF0
FFC07FE03FF0
FFC07FE03FF0
FFC07FE03FF0
FFC07FE03FF0
FFC07FE03FF0
FFC07FE03FF0
ENDCHAR
STARTCHAR n
ENCODING 110
SWIDTH 634 0
DWIDTH 32 0
BBX 27 28 3 0
BITMAP
0003F800
FFCFFE00
FFDFFF00
FFFFFF80
FFFFFFC0
FFFFFFC0
FFFFFFE0
FFFFFFE0
FFF1FFE0
FFE0FFE0
FFC07FE0
FFC07FE0
FFC07FE0
FFC07FE0
FFC07FE0
FFC07FE0
FFC07FE0
FFC07FE0
FFC07FE0
FFC07FE0
FFC07FE0
FFC07FE0
FFC07FE0
FFC07FE0
FFC07FE0
FFC07FE0
FFC07FE0
FFC07FE0
ENDCHAR
STARTCHAR o
ENCODING 111
SWIDTH 656 0
DWIDTH 33 0
BBX 31 29 1 -1
BITMAP
001FF000
007FFE00
01FFFF00
07FFFFC0
0FFFFFE0
1FFFFFF0
3FFFFFF8
3FFFFFF8
7FF83FFC
7FF01FFC
7FE00FFC
FFE00FFE
FFC007FE
FFC007FE
FFC007FE
FFC007FE
FFC007FE
FFE00FFE
7FE00FFC
7FF01FFC
7FF83FFC
3FFFFFF8
3FFFFFF8
1FFFFFF0
0FFFFFE0
07FFFFC0
01FFFF00
00FFFC00
001FF000
ENDCHAR
STARTCHAR p
ENCODING 112
SWIDTH 676 0
DWIDTH 34 0
BBX 29 36 3 -8
BITMAP
0001F800
FFC7FE00
FFCFFF00
FFDFFF80
FFFFFFC0
FFFFFFE0
FFFFFFE0
FFFFFFF0
FFF8FFF0
FFF07FF0
FFE03FF8
FFC01FF8
FFC01FF8
FFC01FF8
FFC01FF8
FFC01FF8
FFC01FF8
FFC01FF8
FFE03FF8
FFF07FF0
FFF8FFF0
FFFFFFF0
FFFFFFE0
FFFFFFE0
FFFFFFC0
FFFFFF80
FFDFFF00
FFCFFE00
FFC1F800
FFC00000
FFC00000
FFC00000
FFC00000
FFC00000
FFC00000
FFC00000
ENDCHAR
STARTCHAR q
ENCODING 113
SWIDTH 676 0
DWIDTH 34 0
BBX 29 36 2 -8
BITMAP
00FC0000
03FF1FF8
07FFDFF8
0FFFFFF8
1FFFFFF8
3FFFFFF8
3FFFFFF8
7FFFFFF8
7FF8FFF8
7FF07FF8
FFE03FF8
FFC01FF8
FFC01FF8
FFC01FF8
FFC01FF8
FFC01FF8
FFC01FF8
FFC01FF8
FFE03FF8
7FF07FF8
7FF8FFF8
7FFFFFF8
3FFFFFF8
3FFFFFF8
1FFFFFF8
0FFFDFF8
07FF9FF8
03FF1FF8
00FC1FF8
00001FF8
00001FF8
00001FF8
00001FF8
00001FF8
00001FF8
00001FF8
ENDCHAR
STARTCHAR r
ENCODING 114
SWIDTH 428 0
DWIDTH 21 0
BBX 19 27 2 0
BITMAP
FFC3E0
FFC7E0
FFCFE0
FFDFE0
FFDFE0
FFFFE0
FFFFE0
FFFFE0
FFFFE0
FFFFE0
FFFE00
FFF800
FFF000
FFE000
FFE000
FFC000
FFC000
FFC000
FFC000
FFC000
FFC000
FFC000
FFC000
FFC000
FFC000
FFC000
FFC000
ENDCHAR
STARTCHAR s
ENCODING 115
SWIDTH 514 0
DWIDTH 26 0
BBX 24 29 0 -1
BITMAP
007F80
03FFF0
07FFFC
0FFFFF
1FFFFE
3FFFFE
3FFFFC
3FE0FC
3FC038
3FE008
3FFC00
3FFF80
3FFFE0
1FFFF8
0FFFFC
07FFFE
01FFFF
007FFF
0007FF
0801FF
1E00FF
3FC1FF
3FFFFF
7FFFFF
7FFFFE
FFFFFC
1FFFFC
07FFF0
007F80
ENDCHAR
STARTCHAR t
ENCODING 116
SWIDTH 431 0
DWIDTH 22 0
BBX 19 35 1 -1
BITMAP
1FF800
1FF800
1FF800
1FF800
1FF800
1FF800
1FF800
FFFFE0
FFFFE0
FFFFE0
FFFFE0
FFFFE0
FFFFE0
FFFFE0
FFFFE0
1FF800
1FF800
1FF800
1FF800
1FF800
1FF800
1FF800
1FF800
1FF800
1FF800
1FF800
1FFC20
1FFFE0
1FFFE0
1FFFE0
0FFFE0
0FFFE0
07FFE0
03FFE0
007F00
ENDCHAR
STARTCHAR u
ENCODING 117
SWIDTH 634 0
DWIDTH 32 0
BBX 27 28 2 -1
BITMAP
FFC07FE0
FFC07FE0
FFC07FE0
FFC07FE0
FFC07FE0
FFC07FE0
FFC07FE0
FFC07FE0
FFC07FE0
FFC07FE0
FFC07FE0
FFC07FE0
FFC07FE0
FFC07FE0
FFC07FE0
FFC07FE0
FFC07FE0
FFC07FE0
FFE0FFE0
FFF1FFE0
FFFFFFE0
FFFFFFE0
7FFFFFE0
7FFFFFE0
3FFFFFE0
1FFF7FE0
0FFE7FE0
03F80000
ENDCHAR
STARTCHAR v
ENCODING 118
SWIDTH 625 0
DWIDTH 31 0
BBX 31 27 0 0
BITMAP
FFE007FE
7FE00FFC
7FE00FFC
3FF00FF8
3FF01FF8
1FF01FF8
1FF81FF0
1FF83FF0
0FF83FE0
0FFC3FE0
07FC7FE0
07FC7FC0
07FE7FC0
03FEFF80
03FEFF80
01FFFF80
01FFFF00
01FFFF00
00FFFE00
00FFFE00
007FFE00
007FFC00
007FFC00
003FF800
003FF800
001FF800
001FF000
ENDCHAR
STARTCHAR w
ENCODING 119
SWIDTH 861 0
DWIDTH 43 0
BBX 41 27 1 0
BITMAP
FF80FF80FF80
FF80FF80FF80
FFC0FF80FF80
7FC0FFC1FF00
7FC1FFC1FF00
7FC1FFC1FF00
3FE1FFC1FE00
3FE3FFE3FE00
3FE3FFE3FE00
3FE3FFE3FE00
1FF7FFF7FC00
1FF7FFF7FC00
1FF7FFF7FC00
0FFFF7FFF800
0FFFF7FFF800
0FFFF7FFF800
07FFE3FFF000
07FFE3FFF000
07FFE3FFF000
03FFC1FFE000
03FFC1FFE000
03FFC1FFE000
03FF81FFE000
01FF80FFC000
01FF80FFC000
01FF00FFC000
00FF007F8000
ENDCHAR
STARTCHAR x
ENCODING 120
SWIDTH 589 0
DWIDTH 29 0
BBX 29 27 0 0
BITMAP
7FE03FF8
3FF03FF0
3FF07FE0
1FF87FE0
0FFCFFC0
0FFDFF80
07FFFF80
03FFFF00
03FFFE00
01FFFE00
00FFFC00
00FFF800
007FF800
007FF000
007FF800
00FFF800
01FFFC00
01FFFE00
03FFFE00
07FFFF00
07FDFF80
0FFCFF80
1FF8FFC0
1FF87FE0
3FF07FE0
7FE03FF0
FFE01FF8
ENDCHAR
STARTCHAR y
ENCODING 121
SWIDTH 626 0
DWIDTH 31 0
BBX 30 35 1 -8
BITMAP
FFC00FFC
FFC00FF8
7FC01FF8
7FE01FF0
7FE01FF0
3FE03FF0
3FF03FE0
1FF03FE0
1FF07FE0
1FF87FC0
0FF87FC0
0FF8FF80
07FCFF80
07FCFF80
07FDFF00
03FFFF00
03FFFF00
01FFFE00
01FFFE00
00FFFC00
00FFFC00
00FFFC00
007FF800
007FF800
003FF800
003FF000
1C3FF000
1FFFE000
1FFFE000
3FFFC000
3FFFC000
7FFF8000
7FFF0000
1FFE0000
03F80000
ENDCHAR
STARTCHAR z
ENCODING 122
SWIDTH 563 0
DWIDTH 28 0
BBX 25 27 2 0
BITMAP
FFFFFF80
FFFFFF80
FFFFFF80
FFFFFF80
FFFFFF80
FFFFFF80
FFFFFF00
FFFFFE00
000FFC00
001FF800
003FF000
007FE000
00FFC000
01FFC000
03FF8000
07FF0000
0FFE0000
1FFC0000
3FF80000
7FFFFF80
FFFFFF80
FFFFFF80
FFFFFF80
FFFFFF80
FFFFFF80
FFFFFF80
FFFFFF80
ENDCHAR
STARTCHAR braceleft
ENCODING 123
SWIDTH 490 0
DWIDTH 25 0
BBX 21 43 1 -7
BITMAP
000070
0007F0
001FF0
003FF8
007FF8
00FFF8
00FFC0
01FF80
01FF00
01FE00
01FE00
01FE00
01FE00
01FE00
01FE00
01FE00
01FE00
03FE00
0FFC00
FFFC00
FFF800
FFE000
FFE000
FFF800
FFFC00
0FFC00
03FE00
01FE00
01FE00
01FE00
01FE00
01FE00
01FE00
01FE00
01FE00
01FF00
01FFC0
00FFF8
00FFF8
007FF8
001FF0
0007F0
0000F0
ENDCHAR
STARTCHAR bar
ENCODING 124
SWIDTH 355 0
DWIDTH 18 0
BBX 7 46 5 -6
BITMAP
FE
FE
FE
FE
FE
FE
FE
FE
FE
FE
FE
FE
FE
FE
FE
FE
FE
FE
FE
FE
FE
FE
FE
FE
FE
FE
FE
FE
FE
FE
FE
FE
FE
FE
FE
FE
FE
FE
FE
FE
FE
FE
FE
FE
FE
FE
ENDCHAR
STARTCHAR braceright
ENCODING 125
SWIDTH 490 0
DWIDTH 25 0
BBX 21 43 2 -7
BITMAP
700000
7F0000
7FC000
FFE000
FFF000
FFF800
1FF800
0FFC00
07FC00
03FC00
03FC00
03FC00
03FC00
03FC00
03FC00
03FC00
03FC00
03FE00
01FF80
01FFF8
00FFF8
003FF8
003FF8
00FFF8
01FFF8
01FF80
03FE00
03FC00
03FC00
03FC00
03FC00
03FC00
03FC00
03FC00
03FC00
07FC00
1FFC00
FFF800
FFF800
FFF000
7FC000
7F0000
780000
ENDCHAR
STARTCHAR asciitilde
ENCODING 126
SWIDTH 505 0
DWIDTH 25 0
BBX 21 9 2 11
BITMAP
0F80C0
1FE0F8
3FF1F8
7FFFF8
7FFFF0
7FFFF0
FC7FE0
F81FE0
180780
ENDCHAR
STARTCHAR nonbreakingspace
ENCODING 160
SWIDTH 277 0
DWIDTH 14 0
BBX 1 1 0 0
BITMAP
00
ENDCHAR
STARTCHAR exclamdown
ENCODING 161
SWIDTH 324 0
DWIDTH 16 0
BBX 11 35 3 0
BITMAP
FFC0
FFC0
FFC0
FFC0
FFC0
FFC0
FFC0
FFC0
0000
0000
0000
1F00
3F00
3F00
3F00
3F00
3F00
3F80
3F80
7F80
7F80
7F80
7F80
7F80
7FC0
FFC0
FFC0
FFC0
FFC0
FFC0
FFC0
FFE0
FFE0
FFE0
FFE0
ENDCHAR
STARTCHAR cent
ENCODING 162
SWIDTH 575 0
DWIDTH 29 0
BBX 26 35 2 0
BITMAP
0003F000
0003F000
0003F000
0007E000
00FFF000
03FFFC00
07FFFE00
0FFFFF00
1FFFFF80
3FFFFFC0
3FFFFF00
7FE7BC00
7FC79800
FF878000
FF0F8000
FF0F8000
FF0F8000
FF0F0000
FF0F0000
FF1F0000
FF9F0000
7F9F1800
7FDE3C00
7FFE7E00
3FFFFF80
1FFFFFC0
1FFFFF80
0FFFFF00
03FFFC00
01FFF800
007FC000
007C0000
00FC0000
00FC0000
00FC0000
ENDCHAR
STARTCHAR sterling
ENCODING 163
SWIDTH 639 0
DWIDTH 32 0
BBX 29 36 2 0
BITMAP
0007FC00
003FFF80
007FFFC0
00FFFFF0
01FFFFF8
03FFFFF0
07FFFFE0
07FFFFC0
07FF0F80
0FFE0300
0FFC0200
0FFC0000
0FFC0000
0FFC0000
0FFC0000
0FFC0000
FFFFFF80
FFFFFF80
FFFFFF80
FFFFFF80
FFFFFF80
FFFFFF80
FFFFFF80
0FFC0000
0FFC0000
0FFC0000
0FFC0000
0FFC0000
0FFFFFF8
3FFFFFF8
FFFFFFF8
FFFFFFF8
FFFFFFF8
FFFFFFF8
FFFFFFF8
FFFFFFF8
ENDCHAR
STARTCHAR currency
ENCODING 164
SWIDTH 682 0
DWIDTH 34 0
BBX 31 37 2 -1
BITMAP
0001FE00
000FFFC0
001FFFF0
007FFFF8
00FFFFFC
01FFFFFE
03FFFFFC
03FFFFF8
07FF83F0
07FE01E0
0FFE00C0
0FFC0000
FFFFFC00
FFFFFC00
FFFFFC00
FFFFFC00
FFFFFC00
1FF80000
1FF80000
1FF80000
FFFFFC00
FFFFFC00
FFFFFC00
FFFFFC00
FFFFFC00
0FFC0000
0FFC0040
07FE01E0
07FF83F0
03FFFFF8
03FFFFFC
01FFFFFE
00FFFFFC
007FFFF8
003FFFF0
000FFFC0
0001FE00
ENDCHAR
STARTCHAR yen
ENCODING 165
SWIDTH 708 0
DWIDTH 35 0
BBX 36 35 0 0
BITMAP
FFF0007FF0
7FF000FFE0
3FF801FFC0
1FF801FF80
1FFC03FF80
0FFE03FF00
07FE07FE00
07FF0FFE00
03FF0FFC00
03FF9FFC00
01FFDFF800
00FFFFF000
00FFFFF000
007FFFE000
003FFFC000
003FFFC000
0FFFFFFF00
0FFFFFFF00
0FFFFFFF00
0FFFFFFF00
0FFFFFFF00
0FFFFFFF00
0007FE0000
0007FE0000
0FFFFFFF00
0FFFFFFF00
0FFFFFFF00
0FFFFFFF00
0FFFFFFF00
0FFFFFFF00
0007FE0000
0007FE0000
0007FE0000
0007FE0000
0007FE0000
ENDCHAR
STARTCHAR section
ENCODING 167
SWIDTH 626 0
DWIDTH 31 0
BBX 27 37 2 -1
BITMAP
007FC000
03FFFC00
07FFFF00
0FFFFF80
1FFFFFC0
1FFFFF00
3FE07E00
3FE01E00
3FE00400
3FF80000
3FFF8000
1FFFF800
1FFFFE00
0FFFFF80
3FFFFFC0
7FFFFFC0
7E03FFE0
FE003FE0
FE000FE0
FF800FE0
FFF80FC0
FFFFFFC0
7FFFFF80
3FFFFE00
0FFFFF00
03FFFF00
003FFF80
0003FF80
0400FF80
0F00FF80
0FC0FF80
1FFFFF00
3FFFFF00
7FFFFE00
1FFFFC00
07FFF800
007FC000
ENDCHAR
STARTCHAR dieresis
ENCODING 168
SWIDTH 500 0
DWIDTH 25 0
BBX 19 8 3 29
BITMAP
FF1FE0
FF1FE0
FF1FE0
FF1FE0
FF1FE0
FF1FE0
FF1FE0
FF1FE0
ENDCHAR
STARTCHAR copyright
ENCODING 169
SWIDTH 830 0
DWIDTH 42 0
BBX 36 37 3 -1
BITMAP
0003FC0000
001FFF8000
007C03E000
01E0007800
0380001C00
0700000E00
0E00000700
0C00000300
1801FC0180
3807FF01C0
300FFF80C0
601FFFC060
603FFFE060
607F078060
C07E030030
C0FE000030
C0FC000030
C0FC000030
C0FC000030
C0FC000030
C0FE000030
C07E030030
C07F078030
603FFFE060
603FFFC060
601FFF80E0
3007FF00C0
3001FC01C0
1800000180
1C00000300
0E00000700
0700000E00
0380001C00
01E0007800
007C03E000
001FFF8000
0003FC0000
ENDCHAR
STARTCHAR ordfeminine
ENCODING 170
SWIDTH 390 0
DWIDTH 20 0
BBX 15 22 2 13
BITMAP
0FE0
3FF8
3FFC
1FFC
107E
003E
1FFE
3FFE
7FFE
7C3E
7C3E
7C7E
7FFE
3FFE
1F3E
0000
0000
0000
FFFE
FFFE
FFFE
FFFE
ENDCHAR
STARTCHAR guillemotleft
ENCODING 171
SWIDTH 631 0
DWIDTH 32 0
BBX 29 23 1 2
BITMAP
00C00200
01F00780
01FC0FE0
03FE0FF8
07FC1FF0
0FFC3FE0
1FF87FE0
1FF0FFC0
3FE0FF80
7FC1FF00
FFC3FE00
FF87FE00
FFC3FE00
7FC1FF00
3FE0FF80
1FF0FFC0
1FF87FE0
0FFC3FE0
07FC1FF0
03FE0FF8
01FC0FE0
01F00780
00C00200
ENDCHAR
STARTCHAR hyphen.dup1
ENCODING 173
SWIDTH 408 0
DWIDTH 20 0
BBX 16 8 2 12
BITMAP
FFFF
FFFF
FFFF
FFFF
FFFF
FFFF
FFFF
FFFF
ENDCHAR
STARTCHAR registered
ENCODING 174
SWIDTH 830 0
DWIDTH 42 0
BBX 36 37 3 -1
BITMAP
0003FC0000
001FFF8000
007C03E000
01E0007800
0380001C00
0700000E00
0E00000700
0C00000300
183FFC0180
383FFF01C0
303FFFC0C0
603FFFC060
603FFFE060
603E07E060
C03E03E030
C03E03E030
C03E03E030
C03E0FE030
C03FFFC030
C03FFF8030
C03FFF0030
C03FFE0030
C03E3F0030
603E1F8060
603E1FC060
603E0FC0E0
303E07E0C0
303E07F1C0
1800000180
1C00000300
0E00000700
0700000E00
0380001C00
01E0007800
007C03E000
001FFF8000
0003FC0000
ENDCHAR
STARTCHAR macron
ENCODING 175
SWIDTH 500 0
DWIDTH 25 0
BBX 19 6 3 29
BITMAP
FFFFE0
FFFFE0
FFFFE0
FFFFE0
FFFFE0
FFFFE0
ENDCHAR
STARTCHAR degree
ENCODING 176
SWIDTH 472 0
DWIDTH 24 0
BBX 18 18 3 17
BITMAP
03F000
0FFC00
1FFE00
3FFF00
7FFF80
7E1F80
FC0FC0
F807C0
F807C0
F807C0
F807C0
FC0FC0
7E1F80
7FFF80
3FFF00
1FFE00
0FFC00
03F000
ENDCHAR
STARTCHAR plusminus
ENCODING 177
SWIDTH 618 0
DWIDTH 31 0
BBX 29 37 1 -1
BITMAP
003FE000
01FFFC00
07FFFF00
1FFFFF80
3FFFFFC0
7FFFFFE0
7FFFFFE0
3FFFFFF0
1FE0FFF0
0F803FF0
07003FF0
02003FF0
00003FF0
0000FFE0
007FFFC0
007FFF80
007FFF00
007FFE00
007FFF80
007FFFC0
007FFFE0
007FFFF0
00007FF0
00003FF8
00001FF8
04001FF8
0E001FF8
1F803FF8
3FE07FF8
7FFFFFF0
FFFFFFF0
FFFFFFE0
7FFFFFE0
1FFFFFC0
0FFFFF00
03FFFC00
003FE000
ENDCHAR
STARTCHAR acute
ENCODING 180
SWIDTH 500 0
DWIDTH 25 0
BBX 14 10 7 29
BITMAP
0C00
0F80
1FF0
1FFC
3FF0
3FE0
7FC0
7F80
FF00
FE00
ENDCHAR
STARTCHAR mu
ENCODING 181
SWIDTH 831 0
DWIDTH 42 0
BBX 42 41 2 -5
BITMAP
0001FE000000
001FFFE00000
007FFFF80000
00FFFFFC0000
03FFFFFF0000
07FFFFFF8000
0FFFFFFFC000
0FFFFFFFC000
1FFF03FFE000
3FFC00FFF000
3FF8007FF000
7FF0003FF800
7FE0003FF800
7FE0001FF800
FFE0001FFC00
FFC0000FFC00
FFC0000FFC00
FFC0000FFC00
FFC0000FFC00
FFC0000FFC00
FFC0000FFC00
FFC0000FFC00
FFE0001FFC00
7FE0001FF800
7FF0003FF800
7FF0003FF800
3FF8007FF000
3FFC00FFF000
1FFF03FFE000
0FFFFFFFC000
0FFFFFFFC000
07FFFFFF8000
03FFFFFFC000
00FFFFFFE000
007FFFFFF000
001FFFFFF800
0003FEFFFC00
0000007FFE00
0000003FFF00
0000001FFF80
0000000FFFC0
ENDCHAR
STARTCHAR paragraph
ENCODING 182
SWIDTH 596 0
DWIDTH 30 0
BBX 26 35 1 0
BITMAP
003FFFC0
01FFFFC0
07FFFFC0
0FFFFFC0
1FFFFFC0
3FFFFFC0
7FFFFFC0
7FFFFFC0
7FFFFFC0
FFFFFFC0
FFFFFFC0
FFFFFFC0
FFFFFFC0
FFFFFFC0
FFFFFFC0
7FFFFFC0
7FFFFFC0
7FFFFFC0
3FFFFFC0
1FFFFFC0
0FFFFFC0
07FFFFC0
01FFFFC0
003FFFC0
0000FFC0
0000FFC0
0000FFC0
0000FFC0
0000FFC0
0000FFC0
0000FFC0
0000FFC0
0000FFC0
0000FFC0
0000FFC0
ENDCHAR
STARTCHAR periodcentered
ENCODING 183
SWIDTH 284 0
DWIDTH 14 0
BBX 10 10 2 11
BITMAP
FFC0
FFC0
FFC0
FFC0
FFC0
FFC0
FFC0
FFC0
FFC0
FFC0
ENDCHAR
STARTCHAR cedilla
ENCODING 184
SWIDTH 500 0
DWIDTH 25 0
BBX 11 10 5 -9
BITMAP
07E0
0FE0
1FC0
1FC0
3FC0
7F80
7F80
BF80
0780
0100
ENDCHAR
STARTCHAR ordmasculine
ENCODING 186
SWIDTH 390 0
DWIDTH 20 0
BBX 16 22 2 13
BITMAP
07E0
1FF8
3FFC
7FFE
7C3E
F83F
F81F
F81F
F81F
F81F
7C3E
7FFE
3FFC
1FF8
07E0
0000
0000
0000
7FFE
7FFE
7FFE
7FFE
ENDCHAR
STARTCHAR guillemotright
ENCODING 187
SWIDTH 631 0
DWIDTH 32 0
BBX 29 23 1 2
BITMAP
03000800
0F803C00
3F80FE00
FFC3FF00
7FE1FF80
3FF0FF80
1FF07FC0
0FF83FE0
07FC3FF0
07FE1FF0
03FE0FF8
01FF07F8
03FE0FF8
07FE1FF0
07FC3FF0
0FF83FE0
1FF07FC0
3FF0FF80
7FE1FF80
7FC3FF00
BF80FE00
0F803C00
03000800
ENDCHAR
STARTCHAR questiondown
ENCODING 191
SWIDTH 540 0
DWIDTH 27 0
BBX 26 36 1 -1
BITMAP
007FE000
007FE000
007FE000
007FE000
007FE000
007FE000
007FE000
007FE000
00000000
00000000
00000000
00000000
001F8000
001F8000
001F8000
003F8000
01FFC000
07FFC000
1FFFC000
3FFFC000
3FFFC000
7FFF0000
7FF00000
FFE00000
FFC00000
FFC00C00
FFC01C00
FFE07E00
FFFFFF00
7FFFFF80
7FFFFFC0
3FFFFFC0
1FFFFF00
0FFFFE00
03FFF800
007FC000
ENDCHAR
STARTCHAR Agrave
ENCODING 192
SWIDTH 795 0
DWIDTH 40 0
BBX 39 47 0 0
BITMAP
0000600000
0003E00000
001FF00000
003FF00000
001FF80000
000FFC0000
0007FC0000
0003FE0000
0000FE0000
00007F0000
0000000000
0000000000
0001FF8000
0001FF8000
0003FFC000
0003FFC000
0007FFC000
0007FFE000
000FFFE000
000FFFF000
000FFFF000
001FFFF800
001FFFF800
003FFFF800
003FEFFC00
007FE7FC00
007FC7FE00
007FC3FE00
00FFC3FF00
00FF83FF00
01FF81FF00
01FF01FF80
03FF01FF80
03FFFFFFC0
03FFFFFFC0
07FFFFFFE0
07FFFFFFE0
0FFFFFFFE0
0FFFFFFFF0
1FFFFFFFF0
1FFFFFFFF8
1FF8001FF8
3FF0001FFC
3FF0000FFC
7FF0000FFC
7FE0000FFE
FFE00007FE
ENDCHAR
STARTCHAR Aacute
ENCODING 193
SWIDTH 795 0
DWIDTH 40 0
BBX 39 47 0 0
BITMAP
0000060000
00000FC000
00000FF800
00001FFC00
00001FF000
00003FE000
00003FC000
00007F8000
00007F0000
0000FE0000
0000000000
0000000000
0001FF8000
0001FF8000
0003FFC000
0003FFC000
0007FFC000
0007FFE000
000FFFE000
000FFFF000
000FFFF000
001FFFF800
001FFFF800
003FFFF800
003FEFFC00
007FE7FC00
007FC7FE00
007FC3FE00
00FFC3FF00
00FF83FF00
01FF81FF00
01FF01FF80
03FF01FF80
03FFFFFFC0
03FFFFFFC0
07FFFFFFE0
07FFFFFFE0
0FFFFFFFE0
0FFFFFFFF0
1FFFFFFFF0
1FFFFFFFF8
1FF8001FF8
3FF0001FFC
3FF0000FFC
7FF0000FFC
7FE0000FFE
FFE00007FE
ENDCHAR
STARTCHAR Acircumflex
ENCODING 194
SWIDTH 795 0
DWIDTH 40 0
BBX 39 46 0 0
BITMAP
0000FF0000
0001FF8000
0003FFC000
0007FFC000
0007FFE000
000FFFF000
001FC3F800
003F81FC00
0000000000
0000000000
0000000000
0001FF8000
0001FF8000
0003FFC000
0003FFC000
0007FFC000
0007FFE000
000FFFE000
000FFFF000
000FFFF000
001FFFF800
001FFFF800
003FFFF800
003FEFFC00
007FE7FC00
007FC7FE00
007FC3FE00
00FFC3FF00
00FF83FF00
01FF81FF00
01FF01FF80
03FF01FF80
03FFFFFFC0
03FFFFFFC0
07FFFFFFE0
07FFFFFFE0
0FFFFFFFE0
0FFFFFFFF0
1FFFFFFFF0
1FFFFFFFF8
1FF8001FF8
3FF0001FFC
3FF0000FFC
7FF0000FFC
7FE0000FFE
FFE00007FE
ENDCHAR
STARTCHAR Atilde
ENCODING 195
SWIDTH 795 0
DWIDTH 40 0
BBX 39 46 0 0
BITMAP
0007C03000
000FF87C00
001FFFFC00
003FFFFC00
003FFFF800
003FFFF800
007E3FF000
001C07E000
0000000000
0000000000
0000000000
0001FF8000
0001FF8000
0003FFC000
0003FFC000
0007FFC000
0007FFE000
000FFFE000
000FFFF000
000FFFF000
001FFFF800
001FFFF800
003FFFF800
003FEFFC00
007FE7FC00
007FC7FE00
007FC3FE00
00FFC3FF00
00FF83FF00
01FF81FF00
01FF01FF80
03FF01FF80
03FFFFFFC0
03FFFFFFC0
07FFFFFFE0
07FFFFFFE0
0FFFFFFFE0
0FFFFFFFF0
1FFFFFFFF0
1FFFFFFFF8
1FF8001FF8
3FF0001FFC
3FF0000FFC
7FF0000FFC
7FE0000FFE
FFE00007FE
ENDCHAR
STARTCHAR Adieresis
ENCODING 196
SWIDTH 795 0
DWIDTH 40 0
BBX 39 45 0 0
BITMAP
003FC3FC00
003FC3FC00
003FC3FC00
003FC3FC00
003FC3FC00
003FC3FC00
003FC3FC00
003FC3FC00
0000000000
0000000000
0003FF0000
0003FF8000
0003FF8000
0007FFC000
0007FFC000
000FFFC000
000FFFE000
001FFFE000
001FFFF000
001FFFF000
003FFFF800
003FFFF800
007FE7F800
007FE7FC00
007FC7FC00
00FFC3FE00
00FF83FE00
01FF81FF00
01FF81FF00
03FF00FF00
03FF00FF80
03FFFFFF80
07FFFFFFC0
07FFFFFFC0
0FFFFFFFC0
0FFFFFFFE0
1FFFFFFFE0
1FFFFFFFF0
1FFFFFFFF0
3FF0003FF8
3FF0001FF8
7FE0001FF8
7FE0001FFC
FFE0000FFC
FFC0000FFE
ENDCHAR
STARTCHAR Aring
ENCODING 197
SWIDTH 795 0
DWIDTH 40 0
BBX 40 45 0 0
BITMAP
00007E0000
0000FF0000
0003FF8000
0003C3C000
000781E000
000700E000
000700E000
000700E000
000781E000
0003E7C000
0003FFC000
0003FFC000
0003FFC000
0007FFE000
0007FFE000
000FFFF000
000FFFF000
000FFFF000
001FFFF800
001FFFF800
003FFFFC00
003FFFFC00
003FE7FE00
007FE7FE00
007FC3FE00
00FFC3FF00
00FF83FF00
01FF81FF80
01FF81FF80
01FF00FF80
03FF00FFC0
03FFFFFFC0
07FFFFFFE0
07FFFFFFE0
07FFFFFFF0
0FFFFFFFF0
0FFFFFFFF0
1FFFFFFFF8
1FFFFFFFF8
1FF8001FFC
3FF0000FFC
3FF0000FFC
7FF0000FFE
7FE00007FE
FFE00007FF
ENDCHAR
STARTCHAR AE
ENCODING 198
SWIDTH 1063 0
DWIDTH 53 0
BBX 52 35 0 0
BITMAP
00003FFFFFFFE0
00007FFFFFFFE0
00007FFFFFFFE0
0000FFFFFFFFE0
0000FFFFFFFFE0
0001FFFFFFFFE0
0001FFFFFFFFE0
0003FFFFFFFFE0
0003FEFFC00000
0007FEFFC00000
0007FCFFC00000
000FFCFFC00000
000FF8FFC00000
001FF8FFFFFFC0
003FF0FFFFFFC0
003FE0FFFFFFC0
007FE0FFFFFFC0
007FC0FFFFFFC0
00FFC0FFFFFFC0
00FF80FFFFFFC0
01FF80FFFFFFC0
01FFFFFFC00000
03FFFFFFC00000
03FFFFFFC00000
07FFFFFFC00000
07FFFFFFC00000
0FFFFFFFC00000
0FFFFFFFFFFFF0
1FFFFFFFFFFFF0
1FF000FFFFFFF0
3FF000FFFFFFF0
7FE000FFFFFFF0
7FE000FFFFFFF0
FFC000FFFFFFF0
FFC000FFFFFFF0
ENDCHAR
STARTCHAR Ccedilla
ENCODING 199
SWIDTH 730 0
DWIDTH 37 0
BBX 34 45 2 -9
BITMAP
0003FE0000
001FFFE000
007FFFF800
01FFFFFC00
03FFFFFE00
07FFFFFF00
0FFFFFFF80
1FFFFFFF00
1FFF07FE00
3FFC01F800
3FF8007000
7FF0006000
7FE0000000
7FE0000000
FFC0000000
FFC0000000
FFC0000000
FFC0000000
FFC0000000
FFC0000000
FFC0000000
FFE0000000
FFE0000000
7FE0002000
7FF0007000
7FF800FC00
3FFE03FE00
3FFFFFFF00
1FFFFFFFC0
1FFFFFFF80
0FFFFFFF00
07FFFFFE00
03FFFFFC00
01FFFFF800
007FFFE000
001FFF8000
0007F80000
0007F00000
000FE00000
001FE00000
003FE00000
003FC00000
001FC00000
0003C00000
0000800000
ENDCHAR
STARTCHAR Egrave
ENCODING 200
SWIDTH 667 0
DWIDTH 33 0
BBX 29 47 3 0
BITMAP
00060000
003E0000
01FF0000
07FF0000
01FF8000
00FF8000
007FC000
003FC000
001FE000
000FE000
00000000
00000000
FFFFFFF8
FFFFFFF8
FFFFFFF8
FFFFFFF8
FFFFFFF8
FFFFFFF8
FFFFFFF8
FFFFFFF8
FFC00000
FFC00000
FFC00000
FFC00000
FFC00000
FFFFFFE0
FFFFFFE0
FFFFFFE0
FFFFFFE0
FFFFFFE0
FFFFFFE0
FFFFFFE0
FFFFFFE0
FFC00000
FFC00000
FFC00000
FFC00000
FFC00000
FFC00000
FFFFFFF8
FFFFFFF8
FFFFFFF8
FFFFFFF8
FFFFFFF8
FFFFFFF8
FFFFFFF8
FFFFFFF8
ENDCHAR
STARTCHAR Eacute
ENCODING 201
SWIDTH 667 0
DWIDTH 33 0
BBX 29 47 3 0
BITMAP
00018000
0003F000
0003FE00
0007FF00
0007FC00
000FF800
000FF000
001FE000
001FC000
003F8000
00000000
00000000
FFFFFFF8
FFFFFFF8
FFFFFFF8
FFFFFFF8
FFFFFFF8
FFFFFFF8
FFFFFFF8
FFFFFFF8
FFC00000
FFC00000
FFC00000
FFC00000
FFC00000
FFFFFFE0
FFFFFFE0
FFFFFFE0
FFFFFFE0
FFFFFFE0
FFFFFFE0
FFFFFFE0
FFFFFFE0
FFC00000
FFC00000
FFC00000
FFC00000
FFC00000
FFC00000
FFFFFFF8
FFFFFFF8
FFFFFFF8
FFFFFFF8
FFFFFFF8
FFFFFFF8
FFFFFFF8
FFFFFFF8
ENDCHAR
STARTCHAR Ecircumflex
ENCODING 202
SWIDTH 667 0
DWIDTH 33 0
BBX 29 46 3 0
BITMAP
003FE000
007FE000
007FF000
00FFF800
01FFFC00
03FDFC00
07F8FE00
07E07F00
08000080
00000000
00000000
FFFFFFF8
FFFFFFF8
FFFFFFF8
FFFFFFF8
FFFFFFF8
FFFFFFF8
FFFFFFF8
FFFFFFF8
FFC00000
FFC00000
FFC00000
FFC00000
FFC00000
FFFFFFE0
FFFFFFE0
FFFFFFE0
FFFFFFE0
FFFFFFE0
FFFFFFE0
FFFFFFE0
FFFFFFE0
FFC00000
FFC00000
FFC00000
FFC00000
FFC00000
FFC00000
FFFFFFF8
FFFFFFF8
FFFFFFF8
FFFFFFF8
FFFFFFF8
FFFFFFF8
FFFFFFF8
FFFFFFF8
ENDCHAR
STARTCHAR Edieresis
ENCODING 203
SWIDTH 667 0
DWIDTH 33 0
BBX 29 45 3 0
BITMAP
07F8FF00
07F8FF00
07F8FF00
07F8FF00
07F8FF00
07F8FF00
07F8FF00
07F8FF00
00000000
00000000
FFFFFFF8
FFFFFFF8
FFFFFFF8
FFFFFFF8
FFFFFFF8
FFFFFFF8
FFFFFFF8
FFFFFFF8
FFC00000
FFC00000
FFC00000
FFC00000
FFC00000
FFFFFFE0
FFFFFFE0
FFFFFFE0
FFFFFFE0
FFFFFFE0
FFFFFFE0
FFFFFFE0
FFFFFFE0
FFC00000
FFC00000
FFC00000
FFC00000
FFC00000
FFC00000
FFFFFFF8
FFFFFFF8
FFFFFFF8
FFFFFFF8
FFFFFFF8
FFFFFFF8
FFFFFFF8
FFFFFFF8
ENDCHAR
STARTCHAR Igrave
ENCODING 204
SWIDTH 327 0
DWIDTH 16 0
BBX 15 47 -2 0
BITMAP
0180
0FC0
3FC0
FFE0
7FE0
3FF0
0FF0
07F8
03F8
01FC
0000
0000
07FE
07FE
07FE
07FE
07FE
07FE
07FE
07FE
07FE
07FE
07FE
07FE
07FE
07FE
07FE
07FE
07FE
07FE
07FE
07FE
07FE
07FE
07FE
07FE
07FE
07FE
07FE
07FE
07FE
07FE
07FE
07FE
07FE
07FE
07FE
ENDCHAR
STARTCHAR Iacute
ENCODING 205
SWIDTH 327 0
DWIDTH 16 0
BBX 15 47 3 0
BITMAP
0300
07E0
07FC
0FFE
0FF8
1FF0
1FE0
3FC0
3F80
7F00
0000
0000
FFC0
FFC0
FFC0
FFC0
FFC0
FFC0
FFC0
FFC0
FFC0
FFC0
FFC0
FFC0
FFC0
FFC0
FFC0
FFC0
FFC0
FFC0
FFC0
FFC0
FFC0
FFC0
FFC0
FFC0
FFC0
FFC0
FFC0
FFC0
FFC0
FFC0
FFC0
FFC0
FFC0
FFC0
FFC0
ENDCHAR
STARTCHAR Icircumflex
ENCODING 206
SWIDTH 327 0
DWIDTH 16 0
BBX 20 46 -2 0
BITMAP
03FC00
07FE00
0FFF00
0FFF80
1FFFC0
3FFFC0
7F0FE0
7E07F0
800000
000000
000000
07FE00
07FE00
07FE00
07FE00
07FE00
07FE00
07FE00
07FE00
07FE00
07FE00
07FE00
07FE00
07FE00
07FE00
07FE00
07FE00
07FE00
07FE00
07FE00
07FE00
07FE00
07FE00
07FE00
07FE00
07FE00
07FE00
07FE00
07FE00
07FE00
07FE00
07FE00
07FE00
07FE00
07FE00
07FE00
ENDCHAR
STARTCHAR Idieresis
ENCODING 207
SWIDTH 327 0
DWIDTH 16 0
BBX 19 45 -1 0
BITMAP
FF1FE0
FF1FE0
FF1FE0
FF1FE0
FF1FE0
FF1FE0
FF1FE0
FF1FE0
000000
000000
0FFC00
0FFC00
0FFC00
0FFC00
0FFC00
0FFC00
0FFC00
0FFC00
0FFC00
0FFC00
0FFC00
0FFC00
0FFC00
0FFC00
0FFC00
0FFC00
0FFC00
0FFC00
0FFC00
0FFC00
0FFC00
0FFC00
0FFC00
0FFC00
0FFC00
0FFC00
0FFC00
0FFC00
0FFC00
0FFC00
0FFC00
0FFC00
0FFC00
0FFC00
0FFC00
ENDCHAR
STARTCHAR Eth
ENCODING 208
SWIDTH 815 0
DWIDTH 41 0
BBX 37 35 2 0
BITMAP
0FFFFE0000
0FFFFFC000
0FFFFFF000
0FFFFFFC00
0FFFFFFE00
0FFFFFFF00
0FFFFFFF80
0FFFFFFFC0
0FFC07FFE0
0FFC01FFE0
0FFC007FF0
0FFC007FF0
0FFC003FF0
FFFFF03FF8
FFFFF01FF8
FFFFF01FF8
FFFFF01FF8
FFFFF01FF8
FFFFF01FF8
FFFFF01FF8
FFFFF01FF8
0FFC003FF8
0FFC003FF0
0FFC007FF0
0FFC007FF0
0FFC01FFE0
0FFC07FFE0
0FFFFFFFC0
0FFFFFFF80
0FFFFFFF00
0FFFFFFE00
0FFFFFFC00
0FFFFFF000
0FFFFFC000
0FFFFC0000
ENDCHAR
STARTCHAR Ntilde
ENCODING 209
SWIDTH 785 0
DWIDTH 39 0
BBX 33 46 3 0
BITMAP
003E038000
00FFC3E000
00FFFFE000
01FFFFE000
01FFFFC000
03FFFFC000
03F1FF8000
00E03E0000
0000000000
0000000000
0000000000
FF8001FF80
FFC001FF80
FFE001FF80
FFF001FF80
FFF001FF80
FFF801FF80
FFFC01FF80
FFFE01FF80
FFFE01FF80
FFFF01FF80
FFFF81FF80
FFFFC1FF80
FFFFC1FF80
FFFFE1FF80
FFFFF1FF80
FFFFF9FF80
FFDFF9FF80
FFDFFDFF80
FFCFFFFF80
FFC7FFFF80
FFC3FFFF80
FFC3FFFF80
FFC1FFFF80
FFC0FFFF80
FFC07FFF80
FFC07FFF80
FFC03FFF80
FFC01FFF80
FFC00FFF80
FFC00FFF80
FFC007FF80
FFC003FF80
FFC001FF80
FFC000FF80
FFC000FF80
ENDCHAR
STARTCHAR Ograve
ENCODING 210
SWIDTH 831 0
DWIDTH 42 0
BBX 38 48 2 -1
BITMAP
0000C00000
000FC00000
007FE00000
00FFE00000
003FF00000
000FF00000
0007F80000
0003FC0000
0001FC0000
0000020000
0000000000
0001FE0000
001FFFE000
007FFFF800
00FFFFFC00
03FFFFFF00
07FFFFFF80
0FFFFFFFC0
0FFFFFFFC0
1FFF03FFE0
3FFC00FFF0
3FF8007FF0
7FF0003FF8
7FE0003FF8
7FE0001FF8
FFE0001FFC
FFC0000FFC
FFC0000FFC
FFC0000FFC
FFC0000FFC
FFC0000FFC
FFC0000FFC
FFC0000FFC
FFE0001FFC
7FE0001FF8
7FF0003FF8
7FF0003FF8
3FF8007FF0
3FFC00FFF0
1FFF03FFE0
0FFFFFFFC0
0FFFFFFFC0
07FFFFFF80
03FFFFFF00
00FFFFFC00
007FFFF800
001FFFE000
0003FE0000
ENDCHAR
STARTCHAR Oacute
ENCODING 211
SWIDTH 831 0
DWIDTH 42 0
BBX 38 48 2 -1
BITMAP
0000040000
00000FC000
00001FF800
00001FFC00
00003FF000
00003FC000
00007F8000
0000FF0000
0000FE0000
0000000000
0000000000
0001FE0000
001FFFE000
007FFFF800
00FFFFFC00
03FFFFFF00
07FFFFFF80
0FFFFFFFC0
0FFFFFFFC0
1FFF03FFE0
3FFC00FFF0
3FF8007FF0
7FF0003FF8
7FE0003FF8
7FE0001FF8
FFE0001FFC
FFC0000FFC
FFC0000FFC
FFC0000FFC
FFC0000FFC
FFC0000FFC
FFC0000FFC
FFC0000FFC
FFE0001FFC
7FE0001FF8
7FF0003FF8
7FF0003FF8
3FF8007FF0
3FFC00FFF0
1FFF03FFE0
0FFFFFFFC0
0FFFFFFFC0
07FFFFFF80
03FFFFFF00
00FFFFFC00
007FFFF800
001FFFE000
0003FE0000
ENDCHAR
STARTCHAR Ocircumflex
ENCODING 212
SWIDTH 831 0
DWIDTH 42 0
BBX 38 47 2 -1
BITMAP
0001FE0000
0003FF0000
0007FF8000
000FFFC000
000FFFC000
001FFFE000
003F87F000
007F03F800
0000000000
0000000000
0001FE0000
001FFFE000
007FFFF800
00FFFFFC00
03FFFFFF00
07FFFFFF80
0FFFFFFFC0
0FFFFFFFC0
1FFF03FFE0
3FFC00FFF0
3FF8007FF0
7FF0003FF8
7FE0003FF8
7FE0001FF8
FFE0001FFC
FFC0000FFC
FFC0000FFC
FFC0000FFC
FFC0000FFC
FFC0000FFC
FFC0000FFC
FFC0000FFC
FFE0001FFC
7FE0001FF8
7FF0003FF8
7FF0003FF8
3FF8007FF0
3FFC00FFF0
1FFF03FFE0
0FFFFFFFC0
0FFFFFFFC0
07FFFFFF80
03FFFFFF00
00FFFFFC00
007FFFF800
001FFFE000
0003FE0000
ENDCHAR
STARTCHAR Otilde
ENCODING 213
SWIDTH 831 0
DWIDTH 42 0
BBX 38 47 2 -1
BITMAP
000F806000
001FF0F800
003FFFF800
007FFFF800
007FFFF000
007FFFF000
00FC7FE000
00380FC000
0000000000
0000000000
0001FE0000
001FFFE000
007FFFF800
00FFFFFC00
03FFFFFF00
07FFFFFF80
0FFFFFFFC0
0FFFFFFFC0
1FFF03FFE0
3FFC00FFF0
3FF8007FF0
7FF0003FF8
7FE0003FF8
7FE0001FF8
FFE0001FFC
FFC0000FFC
FFC0000FFC
FFC0000FFC
FFC0000FFC
FFC0000FFC
FFC0000FFC
FFC0000FFC
FFE0001FFC
7FE0001FF8
7FF0003FF8
7FF0003FF8
3FF8007FF0
3FFC00FFF0
1FFF03FFE0
0FFFFFFFC0
0FFFFFFFC0
07FFFFFF80
03FFFFFF00
00FFFFFC00
007FFFF800
001FFFE000
0003FE0000
ENDCHAR
STARTCHAR Odieresis
ENCODING 214
SWIDTH 831 0
DWIDTH 42 0
BBX 38 46 2 -1
BITMAP
007F8FF000
007F8FF000
007F8FF000
007F8FF000
007F8FF000
007F8FF000
007F8FF000
007F8FF000
0000000000
0001FE0000
001FFFE000
007FFFF800
00FFFFFC00
03FFFFFF00
07FFFFFF80
0FFFFFFFC0
0FFFFFFFC0
1FFF03FFE0
3FFC00FFF0
3FF8007FF0
7FF0003FF8
7FE0003FF8
7FE0001FF8
FFE0001FFC
FFC0000FFC
FFC0000FFC
FFC0000FFC
FFC0000FFC
FFC0000FFC
FFC0000FFC
FFC0000FFC
FFE0001FFC
7FE0001FF8
7FF0003FF8
7FF0003FF8
3FF8007FF0
3FFC00FFF0
1FFF03FFE0
0FFFFFFFC0
0FFFFFFFC0
07FFFFFF80
03FFFFFF00
00FFFFFC00
007FFFF800
001FFFE000
0003FE0000
ENDCHAR
STARTCHAR Oslash
ENCODING 216
SWIDTH 831 0
DWIDTH 42 0
BBX 38 37 2 -1
BITMAP
0001FE0004
001FFFC1F8
007FFFF3F8
00FFFFFFF0
03FFFFFFE0
07FFFFFFC0
0FFFFFFFC0
0FFFFFFFC0
1FFF03FFE0
3FFC01FFF0
3FF803FFF0
7FF007FFF8
7FE00FFFF8
7FE01FFFF8
FFE03FDFFC
FFC03F8FFC
FFC07F0FFC
FFC0FF0FFC
FFC1FE0FFC
FFC3FC0FFC
FFC7F80FFC
FFC7F00FFC
FFEFE01FFC
7FFFC01FF8
7FFF801FF8
7FFF803FF8
3FFF007FF0
3FFE00FFF0
1FFF83FFE0
1FFFFFFFC0
0FFFFFFFC0
0FFFFFFF80
1FFFFFFF00
3FFFFFFC00
7F3FFFF800
7E0FFFE000
8001FE0000
ENDCHAR
STARTCHAR Ugrave
ENCODING 217
SWIDTH 758 0
DWIDTH 38 0
BBX 32 47 3 -1
BITMAP
00060000
003F0000
01FF0000
03FF8000
00FF8000
007FC000
003FC000
001FE000
0007E000
00001000
00000000
FFC003FF
FFC003FF
FFC003FF
FFC003FF
FFC003FF
FFC003FF
FFC003FF
FFC003FF
FFC003FF
FFC003FF
FFC003FF
FFC003FF
FFC003FF
FFC003FF
FFC003FF
FFC003FF
FFC003FF
FFC003FF
FFC003FF
FFC003FF
FFC003FF
FFC003FF
FFC003FF
FFC003FF
FFE007FF
7FE007FE
7FF00FFE
7FF81FFE
3FFFFFFC
3FFFFFFC
1FFFFFF8
0FFFFFF0
07FFFFE0
03FFFFC0
00FFFF00
001FF800
ENDCHAR
STARTCHAR Uacute
ENCODING 218
SWIDTH 758 0
DWIDTH 38 0
BBX 32 47 3 -1
BITMAP
00006000
0000FC00
0000FF80
0001FFC0
0001FF00
0003FE00
0003FC00
0007F800
0007E000
00080000
00000000
FFC003FF
FFC003FF
FFC003FF
FFC003FF
FFC003FF
FFC003FF
FFC003FF
FFC003FF
FFC003FF
FFC003FF
FFC003FF
FFC003FF
FFC003FF
FFC003FF
FFC003FF
FFC003FF
FFC003FF
FFC003FF
FFC003FF
FFC003FF
FFC003FF
FFC003FF
FFC003FF
FFC003FF
FFE007FF
7FE007FE
7FF00FFE
7FF81FFE
3FFFFFFC
3FFFFFFC
1FFFFFF8
0FFFFFF0
07FFFFE0
03FFFFC0
00FFFF00
001FF800
ENDCHAR
STARTCHAR Ucircumflex
ENCODING 219
SWIDTH 758 0
DWIDTH 38 0
BBX 32 47 3 -1
BITMAP
000FF000
001FF800
003FFC00
003FFC00
007FFE00
00FFFF00
00FC7F00
01F81F80
02000040
00000000
00000000
FFC003FF
FFC003FF
FFC003FF
FFC003FF
FFC003FF
FFC003FF
FFC003FF
FFC003FF
FFC003FF
FFC003FF
FFC003FF
FFC003FF
FFC003FF
FFC003FF
FFC003FF
FFC003FF
FFC003FF
FFC003FF
FFC003FF
FFC003FF
FFC003FF
FFC003FF
FFC003FF
FFC003FF
FFE007FF
7FE007FE
7FF00FFE
7FF81FFE
3FFFFFFC
3FFFFFFC
1FFFFFF8
0FFFFFF0
07FFFFE0
03FFFFC0
00FFFF00
001FF800
ENDCHAR
STARTCHAR Udieresis
ENCODING 220
SWIDTH 758 0
DWIDTH 38 0
BBX 32 46 3 -1
BITMAP
03FC7F80
03FC7F80
03FC7F80
03FC7F80
03FC7F80
03FC7F80
03FC7F80
03FC7F80
00000000
00000000
FFC003FF
FFC003FF
FFC003FF
FFC003FF
FFC003FF
FFC003FF
FFC003FF
FFC003FF
FFC003FF
FFC003FF
FFC003FF
FFC003FF
FFC003FF
FFC003FF
FFC003FF
FFC003FF
FFC003FF
FFC003FF
FFC003FF
FFC003FF
FFC003FF
FFC003FF
FFC003FF
FFC003FF
FFE007FF
7FE007FE
7FF00FFE
7FF81FFE
3FFFFFFC
3FFFFFFC
1FFFFFF8
0FFFFFF0
07FFFFE0
03FFFFC0
00FFFF00
001FF800
ENDCHAR
STARTCHAR Yacute
ENCODING 221
SWIDTH 723 0
DWIDTH 36 0
BBX 36 47 0 0
BITMAP
0000180000
00003F0000
00003FE000
00007FF000
00007FC000
0000FF8000
0001FF0000
0001FE0000
0003FC0000
0000000000
0000000000
0000000000
FFE0007FF0
7FF0007FE0
7FF000FFE0
3FF801FFC0
3FF801FF80
1FFC03FF80
0FFE03FF00
0FFE07FF00
07FF0FFE00
07FF0FFC00
03FF9FFC00
01FF9FF800
01FFFFF800
00FFFFF000
007FFFE000
007FFFE000
003FFFC000
003FFF8000
001FFF8000
000FFF0000
000FFF0000
0007FE0000
0007FE0000
0007FE0000
0007FE0000
0007FE0000
0007FE0000
0007FE0000
0007FE0000
0007FE0000
0007FE0000
0007FE0000
0007FE0000
0007FE0000
0007FE0000
ENDCHAR
STARTCHAR Thorn
ENCODING 222
SWIDTH 682 0
DWIDTH 34 0
BBX 30 35 3 0
BITMAP
FFC00000
FFC00000
FFC00000
FFC00000
FFC00000
FFFFF000
FFFFFE00
FFFFFF80
FFFFFFC0
FFFFFFE0
FFFFFFF0
FFFFFFF8
FFFFFFF8
FFC07FF8
FFC01FFC
FFC00FFC
FFC00FFC
FFC00FFC
FFC00FFC
FFC00FFC
FFC01FFC
FFC07FF8
FFFFFFF8
FFFFFFF8
FFFFFFF0
FFFFFFE0
FFFFFFC0
FFFFFF80
FFFFFE00
FFFFF000
FFC00000
FFC00000
FFC00000
FFC00000
FFC00000
ENDCHAR
STARTCHAR germandbls
ENCODING 223
SWIDTH 635 0
DWIDTH 32 0
BBX 29 37 2 0
BITMAP
003FC000
01FFF800
07FFFE00
0FFFFF00
1FFFFF80
3FFFFFC0
7FFFFFC0
7FFFFFE0
7FF1FFE0
FFE0FFE0
FFC07FE0
FFC07FE0
FFC07FE0
FFC07FE0
FFC0FFC0
FFC1FF80
FFC3FF80
FFC7FE00
FFC7FC00
FFC7FE00
FFC7FF80
FFC7FFC0
FFC0FFE0
FFC03FF0
FFC01FF8
FFC01FF8
FFC01FF8
FFC01FF8
FFC03FF8
FFC0FFF8
FFC7FFF0
FFC7FFF0
FFC7FFE0
FFC7FFC0
FFC7FF80
FFC7FE00
FFC7F000
ENDCHAR
STARTCHAR agrave
ENCODING 224
SWIDTH 599 0
DWIDTH 30 0
BBX 27 40 1 -1
BITMAP
00080000
007C0000
03FC0000
0FFE0000
03FE0000
01FF0000
00FF0000
007F8000
003F8000
001FC000
00000000
00000000
00FFC000
0FFFF800
3FFFFE00
1FFFFF00
1FFFFF80
1FFFFFC0
1FFFFFC0
0FFFFFC0
0E01FFE0
1000FFE0
00007FE0
01FE7FE0
0FFFFFE0
3FFFFFE0
3FFFFFE0
7FFFFFE0
FFF07FE0
FFC07FE0
FFC07FE0
FFC07FE0
FFC0FFE0
FFE1FFE0
FFFFFFE0
7FFFFFE0
3FFFFFE0
3FFFFFE0
0FFE7FE0
03F80000
ENDCHAR
STARTCHAR aacute
ENCODING 225
SWIDTH 599 0
DWIDTH 30 0
BBX 27 40 1 -1
BITMAP
00018000
0003E000
0003FC00
0007FF00
0007FC00
000FF800
000FF000
001FE000
001FC000
003F8000
00000000
00000000
00FFC000
0FFFF800
3FFFFE00
1FFFFF00
1FFFFF80
1FFFFFC0
1FFFFFC0
0FFFFFC0
0E01FFE0
1000FFE0
00007FE0
01FE7FE0
0FFFFFE0
3FFFFFE0
3FFFFFE0
7FFFFFE0
FFF07FE0
FFC07FE0
FFC07FE0
FFC07FE0
FFC0FFE0
FFE1FFE0
FFFFFFE0
7FFFFFE0
3FFFFFE0
3FFFFFE0
0FFE7FE0
03F80000
ENDCHAR
STARTCHAR acircumflex
ENCODING 226
SWIDTH 599 0
DWIDTH 30 0
BBX 27 39 1 -1
BITMAP
003FC000
007FE000
00FFF000
01FFF800
01FFF800
03FFFC00
07F8FE00
0FE07F00
00000000
00000000
00000000
00FFC000
0FFFF800
3FFFFE00
1FFFFF00
1FFFFF80
1FFFFFC0
1FFFFFC0
0FFFFFC0
0E01FFE0
10007FE0
01FE7FE0
0FFFFFE0
1FFFFFE0
3FFFFFE0
7FFFFFE0
7FF0FFE0
FFE07FE0
FFC07FE0
FFC07FE0
FFC07FE0
FFC0FFE0
FFE1FFE0
7FFFFFE0
7FFFFFE0
3FFFFFE0
1FFFFFE0
0FFE7FE0
03F80000
ENDCHAR
STARTCHAR atilde
ENCODING 227
SWIDTH 599 0
DWIDTH 30 0
BBX 27 39 1 -1
BITMAP
00F81C00
03FE1F00
07FFFF00
07FFFE00
07FFFE00
0FFFFC00
0F87FC00
0781F000
00000000
00000000
00000000
00FFC000
0FFFF800
3FFFFE00
1FFFFF00
1FFFFF80
1FFFFFC0
1FFFFFC0
0FFFFFC0
0E01FFE0
10007FE0
01FE7FE0
0FFFFFE0
1FFFFFE0
3FFFFFE0
7FFFFFE0
7FF0FFE0
FFE07FE0
FFC07FE0
FFC07FE0
FFC07FE0
FFC0FFE0
FFE1FFE0
7FFFFFE0
7FFFFFE0
3FFFFFE0
1FFFFFE0
0FFE7FE0
03F80000
ENDCHAR
STARTCHAR adieresis
ENCODING 228
SWIDTH 599 0
DWIDTH 30 0
BBX 27 38 1 -1
BITMAP
0FF1FE00
0FF1FE00
0FF1FE00
0FF1FE00
0FF1FE00
0FF1FE00
0FF1FE00
0FF1FE00
00000000
00000000
00FFC000
0FFFF800
3FFFFE00
1FFFFF00
1FFFFF80
1FFFFFC0
1FFFFFC0
0FFFFFC0
0E01FFE0
10007FE0
01FE7FE0
0FFFFFE0
1FFFFFE0
3FFFFFE0
7FFFFFE0
7FF0FFE0
FFE07FE0
FFC07FE0
FFC07FE0
FFC07FE0
FFC0FFE0
FFE1FFE0
FFFFFFE0
7FFFFFE0
3FFFFFE0
3FFF7FE0
0FFE7FE0
03F80000
ENDCHAR
STARTCHAR aring
ENCODING 229
SWIDTH 599 0
DWIDTH 30 0
BBX 27 43 1 -1
BITMAP
001F0000
007FC000
00FFE000
00F1E000
01C07000
01C07000
01C07000
01C07000
00F1E000
00FFE000
007FC000
001F0000
00000000
00000000
00000000
00FFC000
0FFFF800
3FFFFE00
1FFFFF00
1FFFFF80
1FFFFFC0
1FFFFFC0
0FFFFFC0
0E01FFE0
10007FE0
01FE7FE0
0FFFFFE0
1FFFFFE0
3FFFFFE0
7FFFFFE0
7FF0FFE0
FFE07FE0
FFC07FE0
FFC07FE0
FFC07FE0
FFC0FFE0
FFE1FFE0
7FFFFFE0
7FFFFFE0
3FFFFFE0
3FFF7FE0
0FFE7FE0
03F80000
ENDCHAR
STARTCHAR ae
ENCODING 230
SWIDTH 940 0
DWIDTH 47 0
BBX 44 29 1 -1
BITMAP
0000000FE000
00FFC03FF800
0FFFF0FFFE00
3FFFFDFFFF00
1FFFFFFFFF80
1FFFFFFFFFC0
1FFFFFFFFFC0
1FFFFFF87FE0
0FFFFFF03FE0
0E01FFE01FF0
10007FE01FF0
01FC7FC00FF0
0FFFFFFFFFF0
1FFFFFFFFFF0
3FFFFFFFFFF0
7FFFFFFFFFF0
7FF07FFFFFF0
FFE03FC00000
FFC03FE00400
FFC01FF00600
FFC01FF81F80
FFC03FFFFFC0
FFE0FFFFFFE0
7FFFFFFFFFE0
7FFFFFFFFFC0
3FFFF7FFFF80
1FFFE1FFFF00
0FFF80FFFC00
03FC001FF000
ENDCHAR
STARTCHAR ccedilla
ENCODING 231
SWIDTH 569 0
DWIDTH 28 0
BBX 27 37 1 -9
BITMAP
001FE000
00FFFC00
01FFFE00
07FFFF80
0FFFFFC0
1FFFFFC0
3FFFFFE0
3FFFFF80
7FF83F00
7FF01C00
7FE00800
FFC00000
FFC00000
FFC00000
FFC00000
FFC00000
FFC00000
FFE00800
7FF01C00
7FF83F00
7FFFFF80
3FFFFFC0
1FFFFFE0
1FFFFFC0
0FFFFF80
07FFFF00
01FFFE00
007FF800
003F8000
007F0000
007F0000
00FF0000
01FE0000
03FE0000
00FE0000
003C0000
00040000
ENDCHAR
STARTCHAR egrave
ENCODING 232
SWIDTH 605 0
DWIDTH 30 0
BBX 28 40 1 -1
BITMAP
00180000
00FC0000
07FC0000
0FFE0000
03FE0000
01FF0000
00FF0000
007F8000
001FC000
00000000
00000000
003FC000
00FFF800
03FFFC00
07FFFE00
0FFFFF00
1FFFFF80
1FFFFFC0
3FFFFFC0
3FF0FFE0
7FE03FE0
7FC03FE0
7FC01FE0
7FFFFFF0
FFFFFFF0
FFFFFFF0
FFFFFFF0
7FFFFFF0
7FC00000
7FC00400
7FE00E00
3FF83F00
3FFFFF80
3FFFFFC0
1FFFFFE0
0FFFFF80
07FFFF00
03FFFE00
00FFFC00
001FE000
ENDCHAR
STARTCHAR eacute
ENCODING 233
SWIDTH 605 0
DWIDTH 30 0
BBX 28 40 1 -1
BITMAP
00018000
0001F000
0003FF00
0003FF00
0007FC00
000FF800
000FF000
001FE000
001FC000
00200000
00000000
003FC000
00FFF800
03FFFC00
07FFFE00
0FFFFF00
1FFFFF80
1FFFFFC0
3FFFFFC0
3FF0FFE0
7FE03FE0
7FC03FE0
7FC01FE0
7FFFFFF0
FFFFFFF0
FFFFFFF0
FFFFFFF0
7FFFFFF0
7FC00000
7FC00400
7FE00E00
3FF83F00
3FFFFF80
3FFFFFC0
1FFFFFE0
0FFFFF80
07FFFF00
03FFFE00
00FFFC00
001FE000
ENDCHAR
STARTCHAR ecircumflex
ENCODING 234
SWIDTH 605 0
DWIDTH 30 0
BBX 28 39 1 -1
BITMAP
003FC000
007FE000
00FFF000
00FFF800
01FFF800
03FFFC00
07F8FE00
07E07F00
08000000
00000000
003FC000
00FFF800
03FFFC00
07FFFE00
0FFFFF00
1FFFFF80
1FFFFFC0
3FFFFFC0
3FF0FFE0
7FE03FE0
7FC03FE0
7FC01FE0
7FFFFFF0
FFFFFFF0
FFFFFFF0
FFFFFFF0
7FFFFFF0
7FC00000
7FC00400
7FE00E00
3FF83F00
3FFFFF80
3FFFFFC0
1FFFFFE0
0FFFFF80
07FFFF00
03FFFE00
00FFFC00
001FE000
ENDCHAR
STARTCHAR edieresis
ENCODING 235
SWIDTH 605 0
DWIDTH 30 0
BBX 27 38 2 -1
BITMAP
0FF1FE00
0FF1FE00
0FF1FE00
0FF1FE00
0FF1FE00
0FF1FE00
0FF1FE00
0FF1FE00
00000000
003FC000
01FFF000
03FFFC00
07FFFE00
0FFFFF00
1FFFFF80
3FFFFF80
3FFFFFC0
7FE1FFC0
7FC07FE0
FF807FE0
FF803FE0
FFFFFFE0
FFFFFFE0
FFFFFFE0
FFFFFFE0
FFFFFFE0
FF800000
FFC00800
7FE00C00
7FF03F00
7FFFFF80
3FFFFFC0
1FFFFFC0
0FFFFF80
07FFFF00
03FFFE00
00FFF800
003FE000
ENDCHAR
STARTCHAR igrave
ENCODING 236
SWIDTH 300 0
DWIDTH 15 0
BBX 15 39 -2 0
BITMAP
0080
07C0
3FC0
FFE0
3FE0
1FF0
0FF0
07F8
03F8
01FC
0000
0000
07FE
07FE
07FE
07FE
07FE
07FE
07FE
07FE
07FE
07FE
07FE
07FE
07FE
07FE
07FE
07FE
07FE
07FE
07FE
07FE
07FE
07FE
07FE
07FE
07FE
07FE
07FE
ENDCHAR
STARTCHAR iacute
ENCODING 237
SWIDTH 300 0
DWIDTH 15 0
BBX 15 39 3 0
BITMAP
0300
07E0
07FC
0FFE
0FF8
1FF0
1FE0
3FC0
3F80
7F00
0000
0000
FFC0
FFC0
FFC0
FFC0
FFC0
FFC0
FFC0
FFC0
FFC0
FFC0
FFC0
FFC0
FFC0
FFC0
FFC0
FFC0
FFC0
FFC0
FFC0
FFC0
FFC0
FFC0
FFC0
FFC0
FFC0
FFC0
FFC0
ENDCHAR
STARTCHAR icircumflex
ENCODING 238
SWIDTH 300 0
DWIDTH 15 0
BBX 21 38 -3 0
BITMAP
03FE00
03FF00
07FF00
0FFF80
1FFFC0
3FDFE0
3F8FE0
7E03F0
800008
000000
000000
03FF00
03FF00
03FF00
03FF00
03FF00
03FF00
03FF00
03FF00
03FF00
03FF00
03FF00
03FF00
03FF00
03FF00
03FF00
03FF00
03FF00
03FF00
03FF00
03FF00
03FF00
03FF00
03FF00
03FF00
03FF00
03FF00
03FF00
ENDCHAR
STARTCHAR idieresis
ENCODING 239
SWIDTH 300 0
DWIDTH 15 0
BBX 19 37 -2 0
BITMAP
FF1FE0
FF1FE0
FF1FE0
FF1FE0
FF1FE0
FF1FE0
FF1FE0
FF1FE0
000000
000000
07FE00
07FE00
07FE00
07FE00
07FE00
07FE00
07FE00
07FE00
07FE00
07FE00
07FE00
07FE00
07FE00
07FE00
07FE00
07FE00
07FE00
07FE00
07FE00
07FE00
07FE00
07FE00
07FE00
07FE00
07FE00
07FE00
07FE00
ENDCHAR
STARTCHAR eth
ENCODING 240
SWIDTH 656 0
DWIDTH 33 0
BBX 29 38 2 -1
BITMAP
00FF8600
00FFFF00
007FFF00
007FFF80
003FFFC0
00FFFE00
03FFF000
07FFF800
03FFFC00
01F3FE00
01C3FE00
0001FF00
0000FF80
00FE7FC0
03FFFFC0
0FFFFFE0
1FFFFFE0
3FFFFFF0
3FFFFFF0
7FF0FFF0
7FE03FF8
FFE03FF8
FFC01FF8
FFC01FF8
FFC01FF8
FFC01FF8
FFC01FF8
FFE03FF8
7FE03FF0
7FF87FF0
7FFFFFF0
3FFFFFE0
1FFFFFC0
1FFFFFC0
0FFFFF00
03FFFE00
01FFF800
003FE000
ENDCHAR
STARTCHAR ntilde
ENCODING 241
SWIDTH 634 0
DWIDTH 32 0
BBX 27 38 3 0
BITMAP
00F81C00
03FE1F00
07FFFF00
07FFFE00
0FFFFE00
0FFFFC00
0F87FC00
0781F000
00000000
00000000
0003F800
FFCFFE00
FFDFFF00
FFFFFF80
FFFFFFC0
FFFFFFC0
FFFFFFE0
FFFFFFE0
FFF1FFE0
FFE0FFE0
FFC07FE0
FFC07FE0
FFC07FE0
FFC07FE0
FFC07FE0
FFC07FE0
FFC07FE0
FFC07FE0
FFC07FE0
FFC07FE0
FFC07FE0
FFC07FE0
FFC07FE0
FFC07FE0
FFC07FE0
FFC07FE0
FFC07FE0
FFC07FE0
ENDCHAR
STARTCHAR ograve
ENCODING 242
SWIDTH 656 0
DWIDTH 33 0
BBX 31 40 1 -1
BITMAP
000C0000
007E0000
03FE0000
07FF0000
01FF8000
00FF8000
007FC000
001FC000
000FE000
00000000
00000000
001FF000
007FFE00
01FFFF00
07FFFFC0
0FFFFFE0
1FFFFFF0
3FFFFFF8
3FFFFFF8
7FF83FFC
7FF01FFC
7FE00FFC
FFE00FFE
FFC007FE
FFC007FE
FFC007FE
FFC007FE
FFC007FE
FFE00FFE
7FE00FFC
7FF01FFC
7FF83FFC
3FFFFFF8
3FFFFFF8
1FFFFFF0
0FFFFFE0
07FFFFC0
01FFFF00
00FFFC00
001FF000
ENDCHAR
STARTCHAR oacute
ENCODING 243
SWIDTH 656 0
DWIDTH 33 0
BBX 31 40 1 -1
BITMAP
00006000
0000FC00
0000FF80
0001FFC0
0003FF00
0003FE00
0007FC00
0007F000
000FE000
00000000
00000000
001FF000
007FFE00
01FFFF00
07FFFFC0
0FFFFFE0
1FFFFFF0
3FFFFFF8
3FFFFFF8
7FF83FFC
7FF01FFC
7FE00FFC
FFE00FFE
FFC007FE
FFC007FE
FFC007FE
FFC007FE
FFC007FE
FFE00FFE
7FE00FFC
7FF01FFC
7FF83FFC
3FFFFFF8
3FFFFFF8
1FFFFFF0
0FFFFFE0
07FFFFC0
01FFFF00
00FFFC00
001FF000
ENDCHAR
STARTCHAR ocircumflex
ENCODING 244
SWIDTH 656 0
DWIDTH 33 0
BBX 31 39 1 -1
BITMAP
001FF000
003FF800
003FF800
007FFC00
00FFFE00
01FEFF00
01FC7F00
03F83F80
04000040
00000000
001FF000
007FFE00
01FFFF00
07FFFFC0
0FFFFFE0
1FFFFFF0
3FFFFFF8
3FFFFFF8
7FF83FFC
7FF01FFC
7FE00FFC
FFE00FFE
FFC007FE
FFC007FE
FFC007FE
FFC007FE
FFC007FE
FFE00FFE
7FE00FFC
7FF01FFC
7FF83FFC
3FFFFFF8
3FFFFFF8
1FFFFFF0
0FFFFFE0
07FFFFC0
01FFFF00
00FFFC00
001FF000
ENDCHAR
STARTCHAR otilde
ENCODING 245
SWIDTH 656 0
DWIDTH 33 0
BBX 31 39 1 -1
BITMAP
007C0600
00FF8FC0
01FFFF80
01FFFF80
03FFFF00
03FFFF00
03E3FE00
05C07C00
00000000
00000000
001FF000
007FFE00
01FFFF00
07FFFFC0
0FFFFFE0
1FFFFFF0
3FFFFFF8
3FFFFFF8
7FF83FFC
7FF01FFC
7FE00FFC
FFE00FFE
FFC007FE
FFC007FE
FFC007FE
FFC007FE
FFC007FE
FFE00FFE
7FE00FFC
7FF01FFC
7FF83FFC
3FFFFFF8
3FFFFFF8
1FFFFFF0
0FFFFFE0
07FFFFC0
01FFFF00
00FFFC00
001FF000
ENDCHAR
STARTCHAR odieresis
ENCODING 246
SWIDTH 656 0
DWIDTH 33 0
BBX 31 38 1 -1
BITMAP
03FC7F80
03FC7F80
03FC7F80
03FC7F80
03FC7F80
03FC7F80
03FC7F80
03FC7F80
00000000
001FF000
007FFE00
01FFFF00
07FFFFC0
0FFFFFE0
1FFFFFF0
3FFFFFF8
3FFFFFF8
7FF83FFC
7FF01FFC
7FE00FFC
FFE00FFE
FFC007FE
FFC007FE
FFC007FE
FFC007FE
FFC007FE
FFE00FFE
7FE00FFC
7FF01FFC
7FF83FFC
3FFFFFF8
3FFFFFF8
1FFFFFF0
0FFFFFE0
07FFFFC0
01FFFF00
00FFFC00
001FF000
ENDCHAR
STARTCHAR oslash
ENCODING 248
SWIDTH 656 0
DWIDTH 33 0
BBX 33 29 0 -1
BITMAP
000FF00180
003FFC7F00
00FFFFFE00
03FFFFFC00
07FFFFF800
0FFFFFF800
1FFFFFFC00
1FFFFFFC00
3FFC1FFE00
3FF03FFE00
3FE07FFE00
7FE0FFFF00
7FC1FDFF00
7FC3F9FF00
7FC7F1FF00
7FCFE1FF00
7FDFC1FF00
7FFF83FF00
3FFF03FE00
3FFE07FE00
3FFE1FFE00
1FFFFFFC00
1FFFFFFC00
0FFFFFF800
0FFFFFF000
1FFFFFE000
3FFFFF8000
7F1FFE0000
8007F80000
ENDCHAR
STARTCHAR ugrave
ENCODING 249
SWIDTH 634 0
DWIDTH 32 0
BBX 27 40 2 -1
BITMAP
00180000
00F80000
03FC0000
0FFC0000
03FE0000
01FE0000
00FF0000
007F0000
003F8000
001F8000
00004000
00000000
FFC07FE0
FFC07FE0
FFC07FE0
FFC07FE0
FFC07FE0
FFC07FE0
FFC07FE0
FFC07FE0
FFC07FE0
FFC07FE0
FFC07FE0
FFC07FE0
FFC07FE0
FFC07FE0
FFC07FE0
FFC07FE0
FFC07FE0
FFC07FE0
FFE0FFE0
FFF1FFE0
FFFFFFE0
FFFFFFE0
7FFFFFE0
7FFFFFE0
3FFFFFE0
1FFF7FE0
0FFE7FE0
03F80000
ENDCHAR
STARTCHAR uacute
ENCODING 250
SWIDTH 634 0
DWIDTH 32 0
BBX 27 40 2 -1
BITMAP
00030000
0003E000
0007FC00
0007FE00
000FFC00
000FF800
001FF000
001FE000
003FC000
003F8000
00000000
00000000
FFC07FE0
FFC07FE0
FFC07FE0
FFC07FE0
FFC07FE0
FFC07FE0
FFC07FE0
FFC07FE0
FFC07FE0
FFC07FE0
FFC07FE0
FFC07FE0
FFC07FE0
FFC07FE0
FFC07FE0
FFC07FE0
FFC07FE0
FFC07FE0
FFE0FFE0
FFF1FFE0
FFFFFFE0
FFFFFFE0
7FFFFFE0
7FFFFFE0
3FFFFFE0
1FFF7FE0
0FFE7FE0
03F80000
ENDCHAR
STARTCHAR ucircumflex
ENCODING 251
SWIDTH 634 0
DWIDTH 32 0
BBX 27 39 2 -1
BITMAP
003F8000
007FC000
00FFE000
01FFF000
03FFF800
03FBF800
07F1FC00
0FE0FE00
10000100
00000000
00000000
FFC07FE0
FFC07FE0
FFC07FE0
FFC07FE0
FFC07FE0
FFC07FE0
FFC07FE0
FFC07FE0
FFC07FE0
FFC07FE0
FFC07FE0
FFC07FE0
FFC07FE0
FFC07FE0
FFC07FE0
FFC07FE0
FFC07FE0
FFC07FE0
FFE0FFE0
FFF1FFE0
FFFFFFE0
FFFFFFE0
7FFFFFE0
7FFFFFE0
3FFFFFE0
1FFF7FE0
0FFE7FE0
03F80000
ENDCHAR
STARTCHAR udieresis
ENCODING 252
SWIDTH 634 0
DWIDTH 32 0
BBX 27 38 2 -1
BITMAP
0FF1FE00
0FF1FE00
0FF1FE00
0FF1FE00
0FF1FE00
0FF1FE00
0FF1FE00
0FF1FE00
00000000
00000000
FFC07FE0
FFC07FE0
FFC07FE0
FFC07FE0
FFC07FE0
FFC07FE0
FFC07FE0
FFC07FE0
FFC07FE0
FFC07FE0
FFC07FE0
FFC07FE0
FFC07FE0
FFC07FE0
FFC07FE0
FFC07FE0
FFC07FE0
FFC07FE0
FFE0FFE0
FFF1FFE0
FFFFFFE0
FFFFFFE0
7FFFFFE0
7FFFFFE0
3FFFFFE0
1FFF7FE0
0FFE7FE0
03F00000
ENDCHAR
STARTCHAR yacute
ENCODING 253
SWIDTH 626 0
DWIDTH 31 0
BBX 30 47 1 -8
BITMAP
00018000
0001F000
0003FE00
0003FF00
0007FE00
0007FC00
000FF000
001FE000
001FC000
003F8000
00000000
00000000
FFC00FFC
FFC00FF8
7FC01FF8
7FE01FF0
7FE01FF0
3FE03FF0
3FF03FE0
1FF03FE0
1FF07FE0
1FF87FC0
0FF87FC0
0FF8FF80
07FCFF80
07FCFF80
07FDFF00
03FFFF00
03FFFF00
01FFFE00
01FFFE00
00FFFC00
00FFFC00
00FFFC00
007FF800
007FF800
003FF800
003FF000
1C3FF000
1FFFE000
1FFFE000
3FFFC000
3FFFC000
7FFF8000
7FFF0000
1FFE0000
03F80000
ENDCHAR
STARTCHAR thorn
ENCODING 254
SWIDTH 676 0
DWIDTH 34 0
BBX 29 45 3 -8
BITMAP
FFC00000
FFC00000
FFC00000
FFC00000
FFC00000
FFC00000
FFC00000
FFC00000
FFC00000
FFC1F800
FFC7FE00
FFCFFF00
FFDFFF80
FFFFFFC0
FFFFFFE0
FFFFFFE0
FFFFFFF0
FFF8FFF0
FFF07FF0
FFE03FF8
FFC01FF8
FFC01FF8
FFC01FF8
FFC01FF8
FFC01FF8
FFC01FF8
FFC01FF8
FFE03FF8
FFF07FF0
FFF8FFF0
FFFFFFF0
FFFFFFE0
FFFFFFE0
FFFFFFC0
FFFFFF80
FFDFFF00
FFCFFE00
FFC1F800
FFC00000
FFC00000
FFC00000
FFC00000
FFC00000
FFC00000
FFC00000
ENDCHAR
STARTCHAR ydieresis
ENCODING 255
SWIDTH 626 0
DWIDTH 31 0
BBX 31 45 0 -8
BITMAP
03FC7F80
03FC7F80
03FC7F80
03FC7F80
03FC7F80
03FC7F80
03FC7F80
03FC7F80
00000000
00000000
FFE007FE
7FE00FFC
7FE00FFC
3FF00FF8
3FF01FF8
1FF01FF8
1FF81FF0
0FF81FF0
0FF83FE0
0FFC3FE0
07FC3FE0
07FC7FC0
03FE7FC0
03FE7FC0
03FEFF80
01FFFF80
01FFFF00
00FFFF00
00FFFF00
00FFFE00
007FFE00
007FFE00
003FFC00
003FFC00
003FF800
001FF800
0E3FF800
0FFFF000
1FFFF000
1FFFE000
1FFFE000
3FFFC000
3FFF8000
0FFF0000
03FC0000
ENDCHAR
STARTCHAR dotlessi
ENCODING 305
SWIDTH 300 0
DWIDTH 15 0
BBX 10 27 3 0
BITMAP
FFC0
FFC0
FFC0
FFC0
FFC0
FFC0
FFC0
FFC0
FFC0
FFC0
FFC0
FFC0
FFC0
FFC0
FFC0
FFC0
FFC0
FFC0
FFC0
FFC0
FFC0
FFC0
FFC0
FFC0
FFC0
FFC0
FFC0
ENDCHAR
STARTCHAR Lslash
ENCODING 321
SWIDTH 659 0
DWIDTH 33 0
BBX 31 35 1 0
BITMAP
0FFC0000
0FFC0000
0FFC0000
0FFC0000
0FFC0000
0FFC0000
0FFC0000
0FFC0000
0FFC0000
0FFC0E00
0FFCFE00
0FFFFE00
0FFFFE00
0FFFFE00
1FFFFE00
FFFFFE00
FFFFFE00
FFFFFE00
FFFFF000
FFFF0000
FFFC0000
FFFC0000
FFFC0000
8FFC0000
0FFC0000
0FFC0000
0FFC0000
0FFFFFFE
0FFFFFFE
0FFFFFFE
0FFFFFFE
0FFFFFFE
0FFFFFFE
0FFFFFFE
0FFFFFFE
ENDCHAR
STARTCHAR lslash
ENCODING 322
SWIDTH 401 0
DWIDTH 20 0
BBX 18 37 1 0
BITMAP
0FFC00
0FFC00
0FFC00
0FFC00
0FFC00
0FFC00
0FFC00
0FFC00
0FFC00
0FFC00
0FFC00
0FFC40
0FFFC0
0FFFC0
0FFFC0
3FFFC0
FFFFC0
FFFFC0
FFFFC0
FFFFC0
FFFE00
FFFC00
FFFC00
FFFC00
8FFC00
0FFC00
0FFC00
0FFC00
0FFC00
0FFC00
0FFC00
0FFC00
0FFC00
0FFC00
0FFC00
0FFC00
0FFC00
ENDCHAR
STARTCHAR OE
ENCODING 338
SWIDTH 1078 0
DWIDTH 54 0
BBX 50 35 2 0
BITMAP
0003FFFFFFFF80
001FFFFFFFFF80
007FFFFFFFFF80
01FFFFFFFFFF80
03FFFFFFFFFF80
07FFFFFFFFFF80
0FFFFFFFFFFF80
1FFFFFFFFFFF80
3FFF03FF000000
3FFC03FF000000
7FF003FF000000
7FF003FF000000
7FE003FF000000
FFE003FFFFFF00
FFC003FFFFFF00
FFC003FFFFFF00
FFC003FFFFFF00
FFC003FFFFFF00
FFC003FFFFFF00
FFC003FFFFFF00
FFC003FFFFFF00
FFE003FF000000
7FE003FF000000
7FF003FF000000
7FF003FF000000
3FFC03FF000000
3FFF03FF000000
1FFFFFFFFFFFC0
0FFFFFFFFFFFC0
0FFFFFFFFFFFC0
03FFFFFFFFFFC0
01FFFFFFFFFFC0
00FFFFFFFFFFC0
001FFFFFFFFFC0
0003FFFFFFFFC0
ENDCHAR
STARTCHAR oe
ENCODING 339
SWIDTH 1013 0
DWIDTH 51 0
BBX 48 29 1 -1
BITMAP
001FE001FC00
00FFF80FFF80
03FFFE3FFFC0
07FFFF7FFFE0
0FFFFFFFFFF0
1FFFFFFFFFF8
3FFFFFFFFFFC
3FFFFFFFFFFC
7FF83FFF07FE
7FF01FFE03FE
7FE00FFC01FE
FFE00FFC01FE
FFC007FFFFFF
FFC007FFFFFF
FFC007FFFFFF
FFC007FFFFFF
FFC007FFFFFF
FFE007FC0000
7FE00FFC0040
7FF01FFE00E0
7FF83FFF83F0
3FFFFFFFFFF8
3FFFFFFFFFFC
1FFFFFFFFFFE
0FFFFFFFFFF8
07FFFF7FFFF0
03FFFE3FFFE0
00FFF80FFF80
001FC001FE00
ENDCHAR
STARTCHAR Scaron
ENCODING 352
SWIDTH 652 0
DWIDTH 33 0
BBX 31 47 0 -1
BITMAP
03F80FC0
01FC3F80
00FE7F00
00FFFE00
007FFE00
003FFC00
001FF800
001FF000
00000000
00000000
001FF800
00FFFF80
01FFFFE0
07FFFFF8
0FFFFFFC
0FFFFFFC
1FFFFFF8
1FFFFFF0
3FF81FE0
3FF003E0
3FF000C0
3FF00000
3FFC0000
3FFF0000
3FFFF000
1FFFFE00
1FFFFFC0
0FFFFFE0
07FFFFF0
03FFFFF8
00FFFFFC
003FFFFC
0007FFFE
00007FFE
00000FFE
060007FE
0F0007FE
1FC007FE
1FF80FFE
3FFFFFFC
7FFFFFFC
FFFFFFF8
3FFFFFF0
1FFFFFE0
07FFFFC0
00FFFF00
001FF800
ENDCHAR
STARTCHAR scaron
ENCODING 353
SWIDTH 514 0
DWIDTH 26 0
BBX 24 39 0 -1
BITMAP
1F80FE
0FE1FC
07F3F8
07FFF0
03FFF0
01FFE0
00FFC0
007F80
000000
000000
007F80
03FFF0
07FFFC
0FFFFF
1FFFFE
3FFFFE
3FFFFC
3FE0FC
3FC038
3FE008
3FFC00
3FFF80
3FFFE0
1FFFF8
0FFFFC
07FFFE
01FFFF
007FFF
0007FF
0801FF
1E00FF
3FC1FF
3FFFFF
7FFFFF
7FFFFE
FFFFFC
1FFFFC
07FFF0
007F80
ENDCHAR
STARTCHAR Ydieresis
ENCODING 376
SWIDTH 723 0
DWIDTH 36 0
BBX 36 45 0 0
BITMAP
007F8FF000
007F8FF000
007F8FF000
007F8FF000
007F8FF000
007F8FF000
007F8FF000
007F8FF000
0000000000
0000000000
FFE0007FF0
7FF0007FE0
7FF000FFE0
3FF801FFC0
3FF801FFC0
1FFC03FF80
0FFC03FF00
0FFE07FF00
07FF07FE00
07FF0FFC00
03FF9FFC00
01FF9FF800
01FFFFF800
00FFFFF000
007FFFE000
007FFFE000
003FFFC000
003FFFC000
001FFF8000
000FFF0000
000FFF0000
0007FE0000
0007FE0000
0007FE0000
0007FE0000
0007FE0000
0007FE0000
0007FE0000
0007FE0000
0007FE0000
0007FE0000
0007FE0000
0007FE0000
0007FE0000
0007FE0000
ENDCHAR
STARTCHAR Zcaron
ENCODING 381
SWIDTH 698 0
DWIDTH 35 0
BBX 31 46 2 0
BITMAP
07F01FC0
01FC3F80
01FEFF00
00FFFE00
007FFC00
003FFC00
003FF800
001FF000
00000000
00000000
00000000
7FFFFFFE
7FFFFFFE
7FFFFFFE
7FFFFFFE
7FFFFFFE
7FFFFFFE
7FFFFFFE
7FFFFFFE
00007FFC
0000FFF8
0001FFF0
0003FFE0
0003FFC0
0007FF80
000FFF00
001FFF00
003FFE00
007FFC00
00FFF800
01FFF000
01FFE000
03FFC000
07FF8000
0FFF8000
1FFF0000
3FFE0000
7FFC0000
FFFFFFFE
FFFFFFFE
FFFFFFFE
FFFFFFFE
FFFFFFFE
FFFFFFFE
FFFFFFFE
FFFFFFFE
ENDCHAR
STARTCHAR zcaron
ENCODING 382
SWIDTH 563 0
DWIDTH 28 0
BBX 25 38 2 0
BITMAP
3F80FC00
1FC3F800
0FE7F800
07FFF000
07FFE000
03FFC000
01FF8000
00FF8000
00000000
00000000
00000000
FFFFFF80
FFFFFF80
FFFFFF80
FFFFFF80
FFFFFF80
FFFFFF80
FFFFFF00
FFFFFE00
000FFC00
001FF800
003FF000
007FE000
00FFC000
01FFC000
03FF8000
07FF0000
0FFE0000
1FFC0000
3FF80000
7FFFFF80
FFFFFF80
FFFFFF80
FFFFFF80
FFFFFF80
FFFFFF80
FFFFFF80
FFFFFF80
ENDCHAR
STARTCHAR florin
ENCODING 402
SWIDTH 553 0
DWIDTH 28 0
BBX 26 37 1 -1
BITMAP
0000FF80
0007FFC0
000FFFC0
001FFFC0
001FFFC0
003FFFC0
003FFFC0
007FFFC0
007FF000
007FE000
007FC000
007FC000
0FFFFF00
0FFFFF00
0FFFFF00
0FFFFF00
0FFFFF00
0FFFFF00
0FFFFF00
0FFFFF00
01FF8000
01FF0000
01FF0000
01FF0000
03FF0000
03FF0000
03FF0000
03FE0000
07FE0000
FFFE0000
FFFE0000
FFFC0000
FFFC0000
FFF80000
FFF00000
FFE00000
7F800000
ENDCHAR
STARTCHAR circumflex
ENCODING 710
SWIDTH 500 0
DWIDTH 25 0
BBX 21 9 2 29
BITMAP
03FE00
03FE00
07FF00
0FFF80
1FFFC0
1FFFC0
3FDFE0
7F07F0
FE03F8
ENDCHAR
STARTCHAR caron
ENCODING 711
SWIDTH 500 0
DWIDTH 25 0
BBX 21 9 2 29
BITMAP
FE03F8
7F07F0
3FDFE0
1FFFC0
1FFFC0
0FFF80
07FF00
03FE00
03FE00
ENDCHAR
STARTCHAR macron.dup2
ENCODING 713
SWIDTH 500 0
DWIDTH 25 0
BBX 19 6 3 29
BITMAP
FFFFE0
FFFFE0
FFFFE0
FFFFE0
FFFFE0
FFFFE0
ENDCHAR
STARTCHAR breve
ENCODING 728
SWIDTH 500 0
DWIDTH 25 0
BBX 19 8 3 29
BITMAP
F803E0
FC07E0
FE0FE0
7FFFC0
7FFFC0
3FFF80
1FFF00
03F800
ENDCHAR
STARTCHAR dotaccent
ENCODING 729
SWIDTH 500 0
DWIDTH 25 0
BBX 9 8 8 29
BITMAP
FF80
FF80
FF80
FF80
FF80
FF80
FF80
FF80
ENDCHAR
STARTCHAR ring
ENCODING 730
SWIDTH 500 0
DWIDTH 25 0
BBX 13 12 6 30
BITMAP
0F80
3FE0
7FF0
78F0
E038
E038
E038
E038
78F0
7FF0
3FE0
0F80
ENDCHAR
STARTCHAR ogonek
ENCODING 731
SWIDTH 500 0
DWIDTH 25 0
BBX 11 9 8 -8
BITMAP
7E00
FE00
FE00
FF00
FFC0
FFE0
7FE0
3FE0
07E0
ENDCHAR
STARTCHAR tilde
ENCODING 732
SWIDTH 500 0
DWIDTH 25 0
BBX 21 9 2 29
BITMAP
0F80C0
3FF1F8
3FFFF8
7FFFF0
7FFFF0
FFFFF0
FC7FE0
F83FE0
180780
ENDCHAR
STARTCHAR hungarumlaut
ENCODING 733
SWIDTH 500 0
DWIDTH 25 0
BBX 23 10 1 29
BITMAP
060300
07C3E0
0FFFF8
0FFFFE
1FFFFC
1FEFF8
3FDFF0
3F9FE0
7F3F80
FE3F00
ENDCHAR
STARTCHAR semicolon.dup3
ENCODING 894
SWIDTH 294 0
DWIDTH 15 0
BBX 11 35 1 -8
BITMAP
7FE0
7FE0
7FE0
7FE0
7FE0
7FE0
7FE0
7FE0
7FE0
7FE0
0000
0000
0000
0000
0000
0000
0000
7FE0
7FE0
7FE0
7FE0
7FE0
7FE0
7FE0
7FE0
7FE0
7FE0
07E0
07E0
0FC0
1FC0
FF80
FF00
FE00
7000
ENDCHAR
STARTCHAR Omega
ENCODING 937
SWIDTH 808 0
DWIDTH 40 0
BBX 38 37 1 0
BITMAP
007F800FF8
01FFC03FFC
07FFC0FFFC
0FFFC1FFFC
0FFFC1FFFC
0FFFC3FFFC
1FFFC3FFFC
1FFC03FF80
1FF803FF00
1FF803FF00
FFFFFFFFFC
FFFFFFFFFC
FFFFFFFFFC
FFFFFFFFFC
FFFFFFFFFC
FFFFFFFFFC
FFFFFFFFFC
FFFFFFFFFC
1FF803FF00
1FF803FF00
1FF803FF00
1FF803FF00
1FF803FF00
1FF803FF00
1FF803FF00
1FF803FF00
1FF803FF00
1FF803FF00
1FF803FF00
1FF803FF00
1FF803FF00
1FF803FF00
1FF803FF00
1FF803FF00
1FF803FF00
1FF803FF00
1FF803FF00
ENDCHAR
STARTCHAR mu.dup4
ENCODING 956
SWIDTH 831 0
DWIDTH 42 0
BBX 42 41 2 -5
BITMAP
0001FE000000
001FFFE00000
007FFFF80000
00FFFFFC0000
03FFFFFF0000
07FFFFFF8000
0FFFFFFFC000
0FFFFFFFC000
1FFF03FFE000
3FFC00FFF000
3FF8007FF000
7FF0003FF800
7FE0003FF800
7FE0001FF800
FFE0001FFC00
FFC0000FFC00
FFC0000FFC00
FFC0000FFC00
FFC0000FFC00
FFC0000FFC00
FFC0000FFC00
FFC0000FFC00
FFE0001FFC00
7FE0001FF800
7FF0003FF800
7FF0003FF800
3FF8007FF000
3FFC00FFF000
1FFF03FFE000
0FFFFFFFC000
0FFFFFFFC000
07FFFFFF8000
03FFFFFFC000
00FFFFFFE000
007FFFFFF000
001FFFFFF800
0003FEFFFC00
0000007FFE00
0000003FFF00
0000001FFF80
0000000FFFC0
ENDCHAR
STARTCHAR pi
ENCODING 960
SWIDTH 830 0
DWIDTH 42 0
BBX 36 37 3 -1
BITMAP
0003FC0000
001FFF8000
007C03E000
01E0007800
0380001C00
0700000E00
0E00000700
0C00000300
1800000180
381FFE01C0
301FFF80C0
601FFFC060
601FFFC060
601FFFE060
C01F07E030
C01F03E030
C01F03E030
C01F07E030
C01FFFC030
C01FFFC030
C01FFF0030
C01FFC0030
C01F000030
601F000060
601F000060
601F0000E0
301F0000C0
301F0001C0
1800000180
1C00000300
0E00000700
0700000E00
0380001C00
01E0007800
007C03E000
001FFF8000
0003FC0000
ENDCHAR
STARTCHAR endash
ENCODING 8211
SWIDTH 528 0
DWIDTH 26 0
BBX 22 8 2 12
BITMAP
FFFFFC
FFFFFC
FFFFFC
FFFFFC
FFFFFC
FFFFFC
FFFFFC
FFFFFC
ENDCHAR
STARTCHAR emdash
ENCODING 8212
SWIDTH 898 0
DWIDTH 45 0
BBX 41 8 2 12
BITMAP
FFFFFFFFFF80
FFFFFFFFFF80
FFFFFFFFFF80
FFFFFFFFFF80
FFFFFFFFFF80
FFFFFFFFFF80
FFFFFFFFFF80
FFFFFFFFFF80
ENDCHAR
STARTCHAR quoteleft
ENCODING 8216
SWIDTH 284 0
DWIDTH 14 0
BBX 11 18 2 17
BITMAP
01C0
0FE0
1FE0
3FE0
7F00
7E00
FC00
FC00
FFC0
FFC0
FFC0
FFC0
FFC0
FFC0
FFC0
FFC0
FFC0
FFC0
ENDCHAR
STARTCHAR quoteright
ENCODING 8217
SWIDTH 284 0
DWIDTH 14 0
BBX 11 18 1 17
BITMAP
7FE0
7FE0
7FE0
7FE0
7FE0
7FE0
7FE0
7FE0
7FE0
7FE0
07E0
07E0
0FC0
1FC0
FF80
FF00
FE00
7800
ENDCHAR
STARTCHAR quotesinglbase
ENCODING 8218
SWIDTH 284 0
DWIDTH 14 0
BBX 11 18 1 -8
BITMAP
7FE0
7FE0
7FE0
7FE0
7FE0
7FE0
7FE0
7FE0
7FE0
7FE0
07E0
07E0
0FC0
1FC0
FF80
FF00
FE00
7000
ENDCHAR
STARTCHAR quotedblleft
ENCODING 8220
SWIDTH 547 0
DWIDTH 27 0
BBX 24 18 2 17
BITMAP
01C00E
0FC07E
1FE0FF
3FE1FF
7F03F8
7E03F0
FC07E0
FC07E0
FFC7FE
FFC7FE
FFC7FE
FFC7FE
FFC7FE
FFC7FE
FFC7FE
FFC7FE
FFC7FE
FFC7FE
ENDCHAR
STARTCHAR quotedblright
ENCODING 8221
SWIDTH 547 0
DWIDTH 27 0
BBX 24 18 1 17
BITMAP
7FE3FF
7FE3FF
7FE3FF
7FE3FF
7FE3FF
7FE3FF
7FE3FF
7FE3FF
7FE3FF
7FE3FF
07E03F
07E03F
0FC07E
1FC0FE
FF87FC
FF07F8
7E03F0
7803C0
ENDCHAR
STARTCHAR quotedblbase
ENCODING 8222
SWIDTH 546 0
DWIDTH 27 0
BBX 24 18 1 -8
BITMAP
7FE3FF
7FE3FF
7FE3FF
7FE3FF
7FE3FF
7FE3FF
7FE3FF
7FE3FF
7FE3FF
7FE3FF
07E03F
07E03F
0FC07E
1FC0FE
FF87FC
FF07F8
7E03F0
7803C0
ENDCHAR
STARTCHAR dagger
ENCODING 8224
SWIDTH 410 0
DWIDTH 21 0
BBX 17 24 2 11
BITMAP
07E000
03E000
03E000
03E000
03E000
03C000
FFFF80
FFFF80
FFFF80
FFFF80
FBDF80
03C000
03C000
03C000
03C000
03C000
03C000
03E000
03E000
03E000
03E000
03E000
03E000
03E000
ENDCHAR
STARTCHAR daggerdbl
ENCODING 8225
SWIDTH 430 0
DWIDTH 22 0
BBX 17 35 2 0
BITMAP
03F000
03E000
03E000
03E000
03E000
01E000
FFFF80
FFFF80
FFFF80
FFFF80
F9EF80
01E000
01E000
03E000
03E000
03E000
03E000
03E000
03E000
03E000
03E000
01E000
01E000
01E000
F9EF80
FFFF80
FFFF80
FFFF80
FFFF80
01E000
03E000
03E000
03E000
03E000
03F000
ENDCHAR
STARTCHAR bullet
ENCODING 8226
SWIDTH 500 0
DWIDTH 25 0
BBX 17 17 4 9
BITMAP
03E000
0FF800
1FFC00
3FFE00
7FFF00
7FFF00
FFFF80
FFFF80
FFFF80
FFFF80
FFFF80
7FFF00
7FFF00
3FFE00
1FFC00
0FF800
03E000
ENDCHAR
STARTCHAR ellipsis
ENCODING 8230
SWIDTH 840 0
DWIDTH 42 0
BBX 38 10 2 0
BITMAP
FFC3FF0FFC
FFC3FF0FFC
FFC3FF0FFC
FFC3FF0FFC
FFC3FF0FFC
FFC3FF0FFC
FFC3FF0FFC
FFC3FF0FFC
FFC3FF0FFC
FFC3FF0FFC
ENDCHAR
STARTCHAR perthousand
ENCODING 8240
SWIDTH 1295 0
DWIDTH 65 0
BBX 61 37 2 -1
BITMAP
03F0000000000000
0FFC0003F8000000
1FFE0007F0000000
3FFF0007E0000000
7FFF800FC0000000
7FFF801F80000000
7E3F803F80000000
FE1FC03F00000000
FC0FC07E00000000
FC0FC0FC00000000
FC0FC1FC00000000
FC0FC1F800000000
FE1FC3F000000000
FE1F87E000000000
7FFF8FE000000000
7FFF8FC000000000
3FFF1F8000000000
1FFE3F07E0007E00
0FFC7F1FF801FF80
03F07E3FFC03FFC0
0000FC7FFE07FFE0
0001F8FFFF0FFFF0
0003F8FFFF0FFFF0
0003F1FC7F1FC7F0
0007E1FC3F9FC3F8
000FC1F81F9F81F8
001FC1F81F9F81F8
001F81F81F9F81F8
003F01F81F9F81F8
007E01FC3F9FC3F8
00FE01FE3F1FE3F0
00FC00FFFF0FFFF0
01F800FFFF0FFFF0
03F0007FFE07FFE0
07F0003FFC03FFC0
0FE0001FF801FF80
00000007E0007E00
ENDCHAR
STARTCHAR guilsinglleft
ENCODING 8249
SWIDTH 357 0
DWIDTH 18 0
BBX 15 23 1 2
BITMAP
00C0
01F0
01FC
03FE
07FC
0FFC
1FF8
1FF0
3FE0
7FC0
FFC0
FF80
FFC0
7FC0
3FE0
1FF0
1FF8
0FFC
07FC
03FE
01FC
01F0
00C0
ENDCHAR
STARTCHAR guilsinglright
ENCODING 8250
SWIDTH 357 0
DWIDTH 18 0
BBX 15 23 1 2
BITMAP
0300
0F80
3F80
FFC0
7FE0
3FF0
1FF0
0FF8
07FC
07FE
03FE
01FE
03FE
07FE
07FC
0FF8
1FF0
3FF0
7FE0
7FC0
BF80
0F80
0300
ENDCHAR
STARTCHAR fraction
ENCODING 8260
SWIDTH 501 0
DWIDTH 25 0
BBX 32 43 -4 -5
BITMAP
000001FF
000001FE
000003FC
000003FC
000007F8
000007F8
00000FF0
00000FF0
00001FE0
00003FC0
00003FC0
00007F80
00007F80
0000FF00
0000FF00
0001FE00
0001FE00
0003FC00
0003FC00
0007F800
0007F000
000FF000
001FE000
001FE000
003FC000
003FC000
007F8000
007F8000
00FF0000
00FF0000
01FE0000
01FE0000
03FC0000
07F80000
07F80000
0FF00000
0FF00000
1FE00000
1FE00000
3FC00000
3FC00000
7F800000
FF800000
ENDCHAR
STARTCHAR trademark
ENCODING 8482
SWIDTH 695 0
DWIDTH 35 0
BBX 32 15 1 20
BITMAP
FFFCF81F
FFFCF81F
FFFCFC3F
FFFCFE7F
0780FE7F
0780FFFF
0780FFFF
0780F7EF
0780F3EF
0780F3CF
0780F18F
0780F18F
0780F00F
0780F00F
0780F00F
ENDCHAR
STARTCHAR Omega.dup5
ENCODING 8486
SWIDTH 808 0
DWIDTH 40 0
BBX 38 37 1 0
BITMAP
007F800FF8
01FFC03FFC
07FFC0FFFC
0FFFC1FFFC
0FFFC1FFFC
0FFFC3FFFC
1FFFC3FFFC
1FFC03FF80
1FF803FF00
1FF803FF00
FFFFFFFFFC
FFFFFFFFFC
FFFFFFFFFC
FFFFFFFFFC
FFFFFFFFFC
FFFFFFFFFC
FFFFFFFFFC
FFFFFFFFFC
1FF803FF00
1FF803FF00
1FF803FF00
1FF803FF00
1FF803FF00
1FF803FF00
1FF803FF00
1FF803FF00
1FF803FF00
1FF803FF00
1FF803FF00
1FF803FF00
1FF803FF00
1FF803FF00
1FF803FF00
1FF803FF00
1FF803FF00
1FF803FF00
1FF803FF00
ENDCHAR
STARTCHAR fraction.dup6
ENCODING 8725
SWIDTH 501 0
DWIDTH 25 0
BBX 32 43 -4 -5
BITMAP
000001FF
000001FE
000003FC
000003FC
000007F8
000007F8
00000FF0
00000FF0
00001FE0
00003FC0
00003FC0
00007F80
00007F80
0000FF00
0000FF00
0001FE00
0001FE00
0003FC00
0003FC00
0007F800
0007F000
000FF000
001FE000
001FE000
003FC000
003FC000
007F8000
007F8000
00FF0000
00FF0000
01FE0000
01FE0000
03FC0000
07F80000
07F80000
0FF00000
0FF00000
1FE00000
1FE00000
3FC00000
3FC00000
7F800000
FF800000
ENDCHAR
STARTCHAR periodcentered.dup7
ENCODING 8729
SWIDTH 284 0
DWIDTH 14 0
BBX 10 10 2 11
BITMAP
FFC0
FFC0
FFC0
FFC0
FFC0
FFC0
FFC0
FFC0
FFC0
FFC0
ENDCHAR
STARTCHAR radical
ENCODING 8730
SWIDTH 1108 0
DWIDTH 55 0
BBX 52 37 1 0
BITMAP
007FC007FC3FF0
03FFE03FFE3FF0
07FFE07FFE3FF0
0FFFE0FFFE3FF0
0FFFE0FFFE3FF0
1FFFE1FFFE3FF0
1FFFE1FFFE3FF0
1FFC01FFC03FF0
1FF801FF803FF0
1FF801FF803FF0
FFFFEFFFFE3FF0
FFFFEFFFFE3FF0
FFFFEFFFFE3FF0
FFFFEFFFFE3FF0
FFFFEFFFFE3FF0
FFFFEFFFFE3FF0
FFFFEFFFFE3FF0
FFFFEFFFFE3FF0
1FF801FF803FF0
1FF801FF803FF0
1FF801FF803FF0
1FF801FF803FF0
1FF801FF803FF0
1FF801FF803FF0
1FF801FF803FF0
1FF801FF803FF0
1FF801FF803FF0
1FF801FF803FF0
1FF801FF803FF0
1FF801FF803FF0
1FF801FF803FF0
1FF801FF803FF0
1FF801FF803FF0
1FF801FF803FF0
1FF801FF803FF0
1FF801FF803FF0
1FF801FF803FF0
ENDCHAR
STARTCHAR approxequal
ENCODING 8776
SWIDTH 1108 0
DWIDTH 55 0
BBX 52 37 1 0
BITMAP
007FC007FC3FF0
03FFE03FFE3FF0
07FFE07FFE3FF0
0FFFE0FFFE3FF0
0FFFE0FFFE3FF0
1FFFE1FFFE3FF0
1FFFE1FFFE3FF0
1FFC01FFC03FF0
1FF801FF800000
1FF801FF800000
FFFFEFFFFE3FF0
FFFFEFFFFE3FF0
FFFFEFFFFE3FF0
FFFFEFFFFE3FF0
FFFFEFFFFE3FF0
FFFFEFFFFE3FF0
FFFFEFFFFE3FF0
FFFFEFFFFE3FF0
1FF801FF803FF0
1FF801FF803FF0
1FF801FF803FF0
1FF801FF803FF0
1FF801FF803FF0
1FF801FF803FF0
1FF801FF803FF0
1FF801FF803FF0
1FF801FF803FF0
1FF801FF803FF0
1FF801FF803FF0
1FF801FF803FF0
1FF801FF803FF0
1FF801FF803FF0
1FF801FF803FF0
1FF801FF803FF0
1FF801FF803FF0
1FF801FF803FF0
1FF801FF803FF0
ENDCHAR
STARTCHAR fi
ENCODING 64257
SWIDTH 704 0
DWIDTH 35 0
BBX 31 37 1 0
BITMAP
007F87FE
01FFC7FE
07FFC7FE
0FFFC7FE
0FFFC7FE
0FFFC7FE
1FFFC7FE
1FFC07FE
1FF80000
1FF80000
FFFFE7FE
FFFFE7FE
FFFFE7FE
FFFFE7FE
FFFFE7FE
FFFFE7FE
FFFFE7FE
FFFFE7FE
1FF807FE
1FF807FE
1FF807FE
1FF807FE
1FF807FE
1FF807FE
1FF807FE
1FF807FE
1FF807FE
1FF807FE
1FF807FE
1FF807FE
1FF807FE
1FF807FE
1FF807FE
1FF807FE
1FF807FE
1FF807FE
1FF807FE
ENDCHAR
STARTCHAR fl
ENCODING 64258
SWIDTH 704 0
DWIDTH 35 0
BBX 31 37 1 0
BITMAP
007FC7FE
01FFC7FE
07FFC7FE
0FFFC7FE
0FFFC7FE
0FFFC7FE
1FFFC7FE
1FFC07FE
1FF807FE
1FF807FE
FFFFE7FE
FFFFE7FE
FFFFE7FE
FFFFE7FE
FFFFE7FE
FFFFE7FE
FFFFE7FE
FFFFE7FE
1FF807FE
1FF807FE
1FF807FE
1FF807FE
1FF807FE
1FF807FE
1FF807FE
1FF807FE
1FF807FE
1FF807FE
1FF807FE
1FF807FE
1FF807FE
1FF807FE
1FF807FE
1FF807FE
1FF807FE
1FF807FE
1FF807FE
ENDCHAR
STARTCHAR .notdef
ENCODING -1
SWIDTH 500 0
DWIDTH 25 0
BBX 1 1 0 0
BITMAP
00
ENDCHAR
STARTCHAR NUL
ENCODING -1
SWIDTH 0 0
DWIDTH 0 0
BBX 1 1 0 0
BITMAP
00
ENDCHAR
STARTCHAR nonmarkingreturn
ENCODING -1
SWIDTH 277 0
DWIDTH 14 0
BBX 1 1 0 0
BITMAP
00
ENDCHAR
STARTCHAR apple
ENCODING -1
SWIDTH 967 0
DWIDTH 48 0
BBX 39 43 5 -5
BITMAP
FFFFFFFFFE
FFFFFFFFFE
FFFFFFFFFE
FFFFFBFFFE
FFFFFFFFFE
FFFFFFFFFE
FFFFFFFFFE
FFFFFFFFFE
FFFFFFFFFE
DFF3DBFFDE
DFBB9E6FCE
FFB9DE7FEE
FFFFFFFFFE
FFFFFFFFFE
FFFFFFFFFE
FFFFFFFFFE
C070221C06
C060221C06
CC64723926
D0647C7926
F07078FF1E
CC7C3C7E1E
C078387E1E
FFFFFFFFFE
FFFFFFFFFE
FFFFFFFFFE
FFFFFFFFFE
FFFDED7BFE
FF77DF7BEE
EFFBFF7FEE
FFFFFFFFFE
FFFFFFFFFE
FFFFFFFFFE
FFFFFFFFFE
FFEDFFFFFE
FFBDFBF7FE
FFFFFFFFFE
FFFFFFFFFE
0000000000
0000000000
0000000000
FF3FECB7AC
DB3DEEB7AC
ENDCHAR
ENDFONT
